<svg xmlns="http://www.w3.org/2000/svg" viewBox="0 0 3000 2250" width="3000" height="2250"><g transform="translate(297.0 213.0) rotate(0.0 684.0 609.75) scale(1.501598741642692 1.5006718875363632)"><svg width="911.029" height="812.636" viewBox="0 0 911.029 812.636"><path d="M30.247 19.593h850.535v762.11H30.247z" fill="#fff"/><path d="M880.782 785.703H30.247a4 4 0 0 1-4-4V19.593a4 4 0 0 1 4-4h850.535a4 4 0 0 1 4 4v762.109a4 4 0 0 1-4 4zm-846.535-8h842.535V23.593H34.247v754.109z" fill="#3375dd"/><path d="M4 4h903.029v32.596H4z" fill="#a5ccf8"/><path d="M907.029 40.596H4a4 4 0 0 1-4-4V4a4 4 0 0 1 4-4h903.03a4 4 0 0 1 4 4v32.596a4 4 0 0 1-4 4zM8 32.596h895.03V8H8z" fill="#3375dd"/><path d="M4 758.084h903.029v50.552H4z" fill="#a5ccf8"/><path d="M907.029 812.636H4a4 4 0 0 1-4-4v-50.552a4 4 0 0 1 4-4h903.03a4 4 0 0 1 4 4v50.552a4 4 0 0 1-4 4zM8 804.636h895.03v-42.552H8z" fill="#3375dd"/><path d="M253.047 389.144c-23.255 2.419-45.439-13.922-49.453-36.426l-33.53-188c-4.014-22.504 11.641-42.78 34.895-45.198l317.786-33.05c23.254-2.418 45.439 13.922 49.453 36.426l33.529 187.999c4.013 22.503-11.641 42.78-34.895 45.198l-317.786 33.051z" fill="#a5ccf8"/><path d="M248.488 393.38c-23.413 0-44.746-17.051-48.832-39.96l-33.53-188c-2.107-11.816.622-23.491 7.686-32.874 7.273-9.662 18.188-15.701 30.733-17.005l317.786-33.05c25.292-2.634 49.43 15.179 53.804 39.702l33.529 187.999c2.107 11.816-.622 23.491-7.686 32.873-7.274 9.662-18.188 15.701-30.734 17.005l-317.786 33.051a48.091 48.091 0 0 1-4.973.258zm4.559-4.236h.01zM527.348 90.232c-1.389 0-2.786.071-4.188.217l-317.787 33.05c-10.309 1.072-19.248 5.994-25.169 13.86-5.712 7.587-7.914 17.054-6.201 26.658l33.53 188c3.653 20.483 23.876 35.355 45.101 33.149l317.786-33.051c10.309-1.072 19.248-5.995 25.169-13.86 5.712-7.586 7.914-17.054 6.201-26.657l-33.529-187.999c-3.412-19.131-21.285-33.366-40.913-33.366z" fill="#3375dd"/><path d="m567.714 338.603-317.786 33.051c-13.31 1.384-25.962-7.935-28.259-20.815l-33.53-188c-2.297-12.88 6.63-24.443 19.94-25.828l317.786-33.05c13.31-1.384 25.961 7.935 28.259 20.815l33.529 187.999c2.297 12.88-6.63 24.443-19.94 25.827z" fill="#fff"/><path d="M247.332 375.788c-14.19 0-27.121-10.346-29.601-24.247l-33.53-188c-1.291-7.236.379-14.383 4.701-20.125 4.441-5.899 11.105-9.587 18.763-10.384l317.786-33.05c15.321-1.587 29.957 9.213 32.61 24.091l33.529 188c1.291 7.236-.379 14.383-4.701 20.124-4.442 5.899-11.105 9.587-18.764 10.384l-317.786 33.051a29.292 29.292 0 0 1-3.01.156zm281.172-267.963c-.738 0-1.479.038-2.225.115l-317.786 33.05c-5.422.564-10.11 3.135-13.199 7.239-2.97 3.945-4.112 8.884-3.216 13.908l33.53 188c1.934 10.841 12.655 18.714 23.907 17.539l317.786-33.051c5.422-.564 10.11-3.135 13.2-7.238 2.97-3.945 4.112-8.884 3.216-13.908l-33.529-188c-1.806-10.123-11.277-17.654-21.683-17.654zm39.21 230.778h.01zm164.714 51.913-1.47-14.129c.388 1.474-4.848 3.056-14.395 4.049l-346.114 36.006c-13.528 1.407-30.588 1.099-38.106-.689l-109.271-25.986c-2.349-.559-3.489-1.196-3.532-1.851l1.461 14.036c.102.636 1.242 1.253 3.526 1.796l109.271 25.986c7.518 1.788 24.578 2.096 38.106.689l346.114-36.006c9.229-.96 14.429-2.471 14.415-3.901z" fill="#3375dd"/><path d="M353.863 435.313c-8.509 0-16.33-.579-20.991-1.687l-109.27-25.986c-1.785-.425-5.966-1.418-6.55-5.054a4.008 4.008 0 0 1-.029-.22l-1.446-13.901a3.999 3.999 0 0 1 7.168-2.945c.262.092.664.215 1.253.355l109.271 25.986c7.021 1.669 23.858 1.945 36.766.602l346.114-36.006c7.147-.744 10.214-1.645 11.35-2.078a4.001 4.001 0 0 1 7.328.988c.081.307.128.618.144.931l1.415 13.597c.03.19.046.385.048.583.041 4.458-4.67 6.53-18.001 7.917l-346.114 36.006c-5.896.613-12.353.911-18.455.911zm-129.076-35.627c.189.053.41.111.666.171l109.271 25.986c7.019 1.669 23.856 1.945 36.767.602l346.114-36.006c5.949-.619 9.071-1.347 10.605-1.824l-.614-5.903c-2.434.614-5.83 1.205-10.618 1.703l-346.113 36.006c-14.113 1.47-31.44 1.127-39.445-.775L224.212 394.15l.576 5.536z" fill="#3375dd"/><path d="m716.563 380.437-346.114 36.006c-13.528 1.407-30.588 1.099-38.106-.689l-109.271-25.986c-7.518-1.788-2.645-4.378 10.882-5.785l346.114-36.006c13.528-1.407 30.588-1.099 38.106.689l109.271 25.986c7.518 1.788 2.645 4.378-10.882 5.785z" fill="#a5ccf8"/><path d="M352.408 421.333c-8.507 0-16.328-.578-20.989-1.687L222.148 393.66c-1.704-.405-6.887-1.638-6.598-6.079.236-3.638 3.256-6.044 17.992-7.577l346.114-36.006c14.114-1.468 31.441-1.127 39.445.776l109.271 25.986c1.704.405 6.887 1.638 6.598 6.079-.236 3.637-3.259 6.043-17.992 7.576l-346.114 36.006c-5.896.614-12.353.911-18.456.911zm-119.141-33.252 100.002 23.782c7.021 1.67 23.857 1.945 36.766.602l346.114-36.006c.379-.04.746-.079 1.102-.12L617.25 352.558c-7.02-1.669-23.857-1.944-36.767-.602l-346.114 36.006c-.379.04-.746.079-1.102.12z" fill="#3375dd"/><path d="m658.891 372.738-317.05 33.009c-3.247.338-7.334.264-9.13-.166l-63.277-15.143c-1.812-.434-.636-1.061 2.627-1.4l318.646-33.155c3.258-.339 7.333-.259 9.102.179l61.776 15.28c1.753.434.547 1.059-2.695 1.396z" fill="#3375dd"/><circle cx="118.656" cy="524.46" fill="#a5ccf8" r="33.908"/><g fill="#3375dd"><path d="M118.656 562.369c-20.903 0-37.909-17.005-37.909-37.908s17.006-37.909 37.909-37.909 37.908 17.006 37.908 37.909-17.005 37.908-37.908 37.908zm0-67.817c-16.492 0-29.909 13.417-29.909 29.909s13.417 29.908 29.909 29.908 29.908-13.417 29.908-29.908-13.417-29.909-29.908-29.909zm202.189 21.781H200.438a4 4 0 0 1 0-8h120.407a4 4 0 0 1 0 8zm69.299 24.254H200.438a4 4 0 0 1 0-8h189.706a4 4 0 0 1 0 8z"/><path d="M116.691 539.371a4.006 4.006 0 0 1-2.762-1.106l-12.272-11.714a4 4 0 0 1 5.523-5.787l9.013 8.604 15.704-20.939a4 4 0 1 1 6.4 4.8l-18.407 24.543a3.998 3.998 0 0 1-3.2 1.6z"/></g><circle cx="118.656" cy="651.522" fill="#a5ccf8" r="33.908"/><path d="M118.656 689.431c-20.903 0-37.909-17.006-37.909-37.909s17.006-37.908 37.909-37.908 37.908 17.005 37.908 37.908-17.005 37.909-37.908 37.909zm0-67.817c-16.492 0-29.909 13.417-29.909 29.908s13.417 29.909 29.909 29.909 29.908-13.417 29.908-29.909-13.417-29.908-29.908-29.908zm166.392 21.781h-84.609a4 4 0 0 1 0-8h84.609a4 4 0 0 1 0 8zm65.432 24.254H200.439a4 4 0 0 1 0-8H350.48a4 4 0 0 1 0 8z" fill="#3375dd"/><path d="M116.691 666.433a4.006 4.006 0 0 1-2.762-1.106l-12.272-11.714a4 4 0 0 1 5.523-5.787l9.013 8.604 15.704-20.939a4 4 0 1 1 6.4 4.8l-18.407 24.543a3.998 3.998 0 0 1-3.2 1.6z" fill="#3375dd"/><circle cx="521.048" cy="524.46" fill="#a5ccf8" r="33.908"/><path d="M521.048 562.369c-20.903 0-37.908-17.005-37.908-37.908s17.005-37.909 37.908-37.909 37.908 17.006 37.908 37.909-17.005 37.908-37.908 37.908zm0-67.817c-16.491 0-29.908 13.417-29.908 29.909s13.417 29.908 29.908 29.908 29.908-13.417 29.908-29.908-13.417-29.909-29.908-29.909zm247.627 21.781H602.831a4 4 0 0 1 0-8h165.844a4 4 0 0 1 0 8zm-70.991 24.254h-94.853a4 4 0 0 1 0-8h94.853a4 4 0 0 1 0 8z" fill="#3375dd"/><path d="M519.083 539.371a4.006 4.006 0 0 1-2.762-1.106l-12.271-11.714a4 4 0 0 1 5.523-5.787l9.013 8.604 15.705-20.939a4 4 0 0 1 6.4 4.8l-18.408 24.543a3.998 3.998 0 0 1-3.2 1.6z" fill="#3375dd"/><circle cx="521.048" cy="651.522" fill="#a5ccf8" r="33.908"/><path d="M521.048 689.431c-20.903 0-37.908-17.006-37.908-37.909s17.005-37.908 37.908-37.908 37.908 17.005 37.908 37.908-17.005 37.909-37.908 37.909zm0-67.817c-16.491 0-29.908 13.417-29.908 29.908s13.417 29.909 29.908 29.909 29.908-13.417 29.908-29.909-13.417-29.908-29.908-29.908zm202.189 21.781H602.831a4 4 0 0 1 0-8h120.406a4 4 0 0 1 0 8zm31.214 24.254h-151.62a4 4 0 0 1 0-8h151.62a4 4 0 0 1 0 8z" fill="#3375dd"/><path d="M519.083 666.433a4.006 4.006 0 0 1-2.762-1.106l-12.271-11.714a4 4 0 0 1 5.523-5.787l9.013 8.604 15.705-20.939a4 4 0 0 1 6.4 4.8l-18.408 24.543a3.998 3.998 0 0 1-3.2 1.6z" fill="#3375dd"/></svg></g><g transform="translate(954.0 406.5) rotate(0.0 972.0 861.0) scale(1.4999803243321654 1.4995284583854727)"><svg width="1296.017" height="1148.361" viewBox="0 0 1296.017 1148.361"><path d="M270.648 713.839c-9.97-22.272-216.869 24.807-215.108 53.661 2.423 39.712 233.532-12.503 215.108-53.661z" fill="#3375dd"/><path d="M93.138 785.692c-11.248 0-21.11-1.093-28.391-3.691-10.417-3.716-12.928-9.805-13.2-14.257-.53-8.684 9.741-17.246 32.323-26.947 17.711-7.608 42.422-15.473 69.581-22.146 27.721-6.811 55.812-11.811 77.071-13.718 34.916-3.132 41.707 2.649 43.776 7.271 2.09 4.669 2.858 12.1-5.355 20.982-16.496 17.839-61.665 33.4-98.435 42.014-24.598 5.762-53.979 10.491-77.37 10.492zm154.95-73.639c-4.55 0-10.103.243-16.851.849-20.875 1.873-48.531 6.801-75.877 13.52-66.814 16.415-96.259 33.761-95.827 40.836.068 1.11.274 4.488 7.903 7.209 17.127 6.11 56.87 3.34 101.249-7.055 44.757-10.485 81.805-26.05 94.386-39.656 6.351-6.868 4.526-10.943 3.927-12.282-.521-1.164-5.057-3.421-18.909-3.421z" fill="#3375dd"/><path d="M284.658 1032.679c-160.024-2.972-177.404-201.827-214.884-320.801-8.275-24.446-13.665-31.196-14.252-31.885-67.054-80.904 51.662-182.855 121.483-104.124 60.844 68.515 63.752 207.806 108.153 290.847 52.956-98.813 36.963-307.453 119.989-372.538 78.722-63.035 177.748 47.732 106.871 118.863-48.489 137.25-26.724 410.889-227.359 419.638z" fill="#fff"/><path d="M284.657 1036.679h-.074c-60.394-1.122-106.231-29.413-140.133-86.491-29.188-49.141-45.547-113.091-59.982-169.513-6.187-24.184-12.031-47.027-18.51-67.595-8.151-24.077-13.267-30.24-13.48-30.49-16.33-19.702-23.247-42.04-20.041-64.644 2.841-20.03 13.464-38.828 29.914-52.932 16.445-14.1 36.641-21.717 56.851-21.467 22.818.291 43.84 10.549 60.795 29.668 35.725 40.229 51.829 104.373 67.402 166.405 10.44 41.584 21.213 84.493 37.746 118.286 19.259-40.029 28.566-95.273 38.39-153.574 14.438-85.682 29.366-174.28 79.144-213.302 42.523-34.05 89.41-18.907 114.967 9.581 25.423 28.34 35.485 76.182-2.152 114.603-12.295 35.152-20.021 79.222-28.197 125.856-11.987 68.371-24.381 139.069-52.814 195.109-32.808 64.663-81.759 97.536-149.65 100.496a5.109 5.109 0 0 1-.175.004zM118.322 551.573c-18.968 0-37.077 7.778-50.764 19.514-27.34 23.442-41.805 66.722-8.958 106.354 1.004 1.176 6.619 8.511 14.962 33.155 6.571 20.857 12.441 43.803 18.656 68.096 14.301 55.899 30.509 119.258 59.11 167.411 32.347 54.46 75.945 81.472 133.279 82.575 64.687-2.856 111.375-34.298 142.74-96.118 27.893-54.977 40.183-125.078 52.068-192.871 8.3-47.344 16.14-92.063 28.829-127.98.198-.561.519-1.07.938-1.491 34.724-34.849 25.64-78.477 2.506-104.265-23.123-25.776-65.544-39.48-104.044-8.652-47.371 37.135-62.038 124.181-76.223 208.361-10.515 62.402-20.446 121.344-42.741 162.944a4 4 0 0 1-3.525 2.11h-.002a3.997 3.997 0 0 1-3.525-2.114c-19.036-35.603-30.705-82.083-41.99-127.034-15.339-61.098-31.2-124.276-65.626-163.043-17.051-19.227-36.797-26.952-55.691-26.952z" fill="#3375dd"/><path d="M284.685 1052.675c-113.651-2.862-124.905-162.495-16.47-196.64 20.479-36.948 31.666-109.187 40.461-159.106 17.135-97.25 30.134-174.158 83.777-218.208 42.681-35.053 105.696-28.863 140.744 13.818 32.248 39.27 29.592 95.746-4.28 131.823-25.878 83.686-31.922 192.789-63.045 278.346-28.746 79.023-91.496 152.224-181.187 149.965z" fill="#fff"/><path d="M288.607 1056.724c-1.338 0-2.679-.017-4.022-.051-50.542-1.273-87.698-34.031-94.66-83.455-6.23-44.234 14.803-100.547 75.543-120.501 17.896-33.426 28.417-94.03 36.893-142.856a5311.67 5311.67 0 0 1 2.376-13.626l.603-3.421c16.995-96.495 30.419-172.712 84.575-217.183 21.468-17.631 48.518-25.842 76.164-23.131 27.646 2.715 52.581 16.033 70.21 37.502 32.855 40.009 31.161 98.483-3.819 136.416-11.525 37.545-18.95 79.454-26.807 123.803-9.304 52.52-18.925 106.828-36.032 153.856-15.732 43.248-39.522 80.264-68.798 107.048-32.666 29.884-71.39 45.6-112.226 45.6zm-3.821-8.048c90.366 2.259 150.874-74.615 177.327-147.334 16.87-46.375 26.429-100.334 35.674-152.518 7.962-44.946 15.483-87.399 27.31-125.643a3.99 3.99 0 0 1 .905-1.556c32.851-34.99 34.616-89.393 4.105-126.547-16.273-19.817-39.29-32.111-64.81-34.617-25.521-2.507-50.488 5.077-70.305 21.352-51.868 42.592-65.065 117.522-81.773 212.388l-.603 3.422c-.771 4.377-1.561 8.925-2.374 13.606-8.696 50.099-19.52 112.449-38.529 146.745a3.998 3.998 0 0 1-2.297 1.876c-57.487 18.102-77.397 70.877-71.57 112.252 4.851 34.436 30.53 75.153 86.939 76.574z" fill="#3375dd"/><path d="M284.685 1052.675c-130.153-2.293-184.537-133.727-208.78-241.903 73.089 20.278 173.914-18.221 193.741-49.628 8.18 31.101 16.618 64.749 29.914 90.496" fill="#fff"/><path d="M284.687 1056.675h-.072c-59.692-1.052-109.252-28.957-147.305-82.94-28.195-40-50.168-94.534-65.308-162.087a4 4 0 0 1 4.973-4.729c31.835 8.832 73.615 6.86 114.628-5.41 35.271-10.553 65.276-27.631 74.662-42.499a4 4 0 0 1 7.251 1.118l1.375 5.236c7.804 29.757 15.874 60.526 28.225 84.442a4 4 0 1 1-7.109 3.671c-12.399-24.009-20.478-54.162-28.189-83.544-13.62 14.631-41.321 29.487-73.922 39.24-39.735 11.889-80.332 14.385-112.636 7.069 14.842 63.59 35.886 115 62.589 152.883 36.501 51.782 83.909 78.546 140.907 79.551a4 4 0 0 1-.069 8z" fill="#3375dd"/><path d="M161.598 561.407c-18.95-17.687-33.318-33.106-35.092-40.242-2.467-9.922-5.603-38.265-9.599-48.512-8.552-21.931-39.513-31.728-41.673-4.122-1.303 16.648-3.314 45.883-2.712 56.824.802 14.588 16.26 41.648 16.26 41.648" fill="#fff"/><path d="M88.785 571.003a3.997 3.997 0 0 1-3.477-2.017c-.65-1.138-15.936-28.058-16.781-43.413-.66-11.996 1.682-44.106 2.719-57.355 1.287-16.441 11.511-19.708 15.846-20.35 12.75-1.884 27.79 8.582 33.542 23.33 2.639 6.767 4.809 20.244 6.724 32.134 1.099 6.827 2.138 13.274 3.03 16.866.643 2.586 5.238 11.496 33.939 38.283a4 4 0 0 1-5.458 5.848c-33.533-31.297-35.574-39.504-36.245-42.201-.974-3.917-1.989-10.223-3.165-17.524-1.76-10.927-3.95-24.526-6.279-30.5-4.782-12.262-16.969-19.496-24.917-18.323-6.706.992-8.618 7.65-9.042 13.06-.799 10.212-3.357 44.453-2.706 56.292.741 13.473 15.589 39.622 15.739 39.885a4 4 0 0 1-3.47 5.984z" fill="#3375dd"/><path d="M117.005 572.739c-10.598-14.607-32.953-25.358-34.779-32.481-2.539-9.904-8.275-41.339-12.272-51.586-8.485-21.757-47.284-34.395-44.771-4.323 1.391 16.641 3.357 60.67 6.725 71.096 4.829 14.949 18.686 50.084 18.686 50.084" fill="#fff"/><path d="M50.595 609.531a4 4 0 0 1-3.722-2.534c-.567-1.439-13.958-35.424-18.771-50.322-2.673-8.273-4.372-34.322-5.737-55.253-.44-6.752-.821-12.584-1.168-16.74-1.379-16.506 8.432-20.595 12.714-21.587 14.053-3.252 33.752 8.694 39.77 24.124 2.794 7.164 6.273 23.634 9.069 36.868 1.359 6.431 2.532 11.985 3.351 15.178.535 2.085 7.105 7.053 11.903 10.681 7.31 5.527 16.407 12.406 22.239 20.444a4 4 0 0 1-6.475 4.698c-5.132-7.073-13.344-13.283-20.589-18.761-7.895-5.969-13.598-10.282-14.827-15.075-.861-3.358-2.051-8.99-3.429-15.511-2.591-12.265-6.14-29.062-8.695-35.615-4.846-12.427-21.301-21.372-30.511-19.237-4.976 1.152-7.178 5.569-6.546 13.127.353 4.228.735 10.093 1.179 16.885 1.194 18.313 3 45.987 5.366 53.314 4.735 14.657 18.462 49.496 18.601 49.847a4 4 0 0 1-3.72 5.468z" fill="#3375dd"/><path d="M55.521 679.993c-12.076-10.863-47.209-66.87-50.033-84.656-2.824-17.787-1.948-56.235 5.407-72.68 9.39-20.994 42.452-13.93 39.388 17.602-1.362 14.017 1.627 36.31 1.627 36.31s15.676 11.757 23.192 25.474" fill="#fff"/><path d="M55.52 683.993a3.985 3.985 0 0 1-2.674-1.026c-12.685-11.41-48.301-68.06-51.309-87.003-2.9-18.27-2.104-57.478 5.706-74.94 4.913-10.985 16.293-16.556 27.685-13.539 10.146 2.685 21.297 12.98 19.337 33.161-1.096 11.28.773 28.49 1.41 33.786 4.107 3.28 16.336 13.645 22.936 25.689a4 4 0 1 1-7.016 3.844c-7.019-12.809-21.934-24.083-22.084-24.195a3.999 3.999 0 0 1-1.564-2.668c-.125-.929-3.034-22.916-1.644-37.229 1.475-15.186-6.308-22.771-13.421-24.654-6.355-1.681-14.488.472-18.335 9.072-6.973 15.59-7.891 52.885-5.107 70.42 2.707 17.05 37.538 72.217 48.758 82.31a4 4 0 0 1-2.677 6.974z" fill="#3375dd"/><path d="M212.855 637.366c-6.701-15.513.778-52.26-2.548-66.809-3.325-14.549-19.845-50.68-24.357-58.459-12.055-20.784-37.395-2.768-32.386 26.506 2.305 13.474 4.194 28.398 4.194 28.398s-22.447 29.798-8.729 58.48" fill="#fff"/><path d="M212.857 641.367a4 4 0 0 1-3.674-2.415c-4.228-9.787-3.383-25.856-2.565-41.396.554-10.53 1.077-20.475-.21-26.108-3.273-14.319-19.676-50.029-23.917-57.343-3.437-5.924-8.087-8.187-13.098-6.374-7.893 2.859-14.497 14.937-11.885 30.198 2.293 13.405 4.201 28.421 4.22 28.571a3.997 3.997 0 0 1-.773 2.909c-.206.275-20.796 28.252-8.316 54.347a4 4 0 0 1-7.216 3.452c-13.052-27.291 3.764-54.798 8.17-61.244-.543-4.146-2.132-15.949-3.969-26.686-3.442-20.119 6.214-35.145 17.046-39.069 8.673-3.141 17.386.646 22.743 9.881 4.521 7.794 21.306 44.303 24.796 59.574 1.536 6.721.984 17.208.4 28.311-.733 13.938-1.564 29.737 1.92 37.803a4 4 0 0 1-3.669 5.587z" fill="#3375dd"/><path d="m55.54 767.501 7.967 54.854c58.416 28.556 197.002-2.479 222.492-58.973l-15.351-49.542c-27.935 43.42-152.868 75.653-215.108 53.661z" fill="#a5ccf8"/><path d="M121.454 837.148c-24.133 0-44.612-3.823-59.704-11.2a4 4 0 0 1-2.202-3.019l-7.967-54.854A4.003 4.003 0 0 1 53 764.409a4.005 4.005 0 0 1 3.872-.681c28.341 10.013 72.493 9.113 118.106-2.408 44.459-11.23 79.829-30.254 92.306-49.646a4 4 0 0 1 7.185.98l15.351 49.542a3.998 3.998 0 0 1-.175 2.829c-9.915 21.975-36.473 41.685-74.781 55.501-25.744 9.285-54.923 15.093-82.164 16.355-3.829.177-7.58.266-11.247.266zM67.155 819.65c32.688 14.756 93.106 12.066 144.994-6.648 35.438-12.781 60.057-30.463 69.569-49.917l-12.586-40.621c-35.283 40.638-147.014 68.157-208.718 50.771z" fill="#3375dd"/><path d="M441.956 942.213c-22.699 62.71-37.813 142.671-42.05 202.148h562.327s2.803-178.713-45.301-250.017c-48.104-71.303-474.975 47.869-474.975 47.869z" fill="#a5ccf8"/><path d="M962.233 1148.361H399.906a3.999 3.999 0 0 1-3.989-4.284c4.656-65.363 21.251-145.134 42.278-203.225a3.996 3.996 0 0 1 2.686-2.491c1.069-.298 108.181-30.081 219.796-50.754 65.66-12.162 120.046-18.845 161.648-19.863 53.943-1.32 85.972 6.648 97.923 24.364 20.325 30.126 34.238 81.801 41.354 153.589 5.274 53.204 4.637 98.278 4.63 98.727a4 4 0 0 1-4 3.937zm-558.017-8h554.039c.031-26.568-1.705-180.138-44.64-243.779-10.159-15.058-40.804-22.07-91.076-20.841-41.173 1.006-95.125 7.643-160.359 19.724-102.91 19.059-202.008 45.893-217.162 50.053-20.011 56.01-35.848 131.713-40.802 194.843z" fill="#3375dd"/><path d="M392.453 478.721c44.596-41.697 183.911-66.557 183.911-66.557l167.215-19.457c27.717 1.32 159.559 13.393 223 50.941 34.851 20.627-27.046 357.839-29.921 388.505s24.25 71.931-13.668 95.494c-50.007 31.075-405.104 45.096-468.833 25.983-33.963-10.186-29.738-42.937-17.716-70.728s-18.048-198.786-31.905-231.369" fill="#fff"/><path d="M580.89 966.28c-56.622 0-106.793-2.493-127.881-8.817-12.437-3.73-21.056-10.591-25.617-20.392-8.027-17.25-1.506-39.841 5.378-55.755 11.459-26.49-18.797-197.372-31.915-228.216a4.001 4.001 0 0 1 7.363-3.131c14.076 33.099 44.707 204.906 31.895 234.522-6.234 14.411-12.243 34.646-5.468 49.204 3.556 7.641 10.507 13.059 20.662 16.104 29.115 8.733 127.075 11.062 238.219 5.666 116.717-5.667 205.958-17.919 227.353-31.214 23.751-14.759 19.518-36.928 15.036-60.397-2.06-10.785-4.189-21.936-3.239-32.073.544-5.802 3.129-22.178 6.708-44.843 7.777-49.26 20.794-131.707 28.169-202.969 11.891-114.895 1.855-133.998-3.011-136.878-68.542-40.567-213.138-49.913-220.843-50.37l-166.748 19.403c-4.703.854-139.09 25.618-181.766 65.52a4 4 0 0 1-5.464-5.844c44.943-42.022 180.204-66.549 185.94-67.573.08-.014.16-.026.24-.035l167.215-19.458c.217-.025.436-.032.653-.022 14.825.707 54.514 4.111 98.612 11.942 56.318 10 98.79 23.308 126.235 39.552 8.842 5.233 19.175 25.915 6.894 144.586-7.397 71.475-20.435 154.054-28.225 203.393-3.556 22.52-6.125 38.791-6.645 44.342-.844 9.005 1.087 19.118 3.132 29.825 4.568 23.921 9.746 51.034-18.671 68.693-27.266 16.944-137.302 27.852-231.188 32.41-36.208 1.758-75.996 2.824-113.023 2.824z" fill="#3375dd"/><path d="M720.597 392.708s-39.234 92.02-89.515 90.05c-50.281-1.971-16.726-72.706-16.726-72.706l-23.725-105.935 104.865-23.486 25.101 112.078z" fill="#fff"/><path d="M632.683 486.788a44.92 44.92 0 0 1-1.757-.034c-12.612-.495-21.616-5.056-26.764-13.559-12.257-20.249 2.712-56.239 5.997-63.584l-23.431-104.622a4 4 0 0 1 3.029-4.777l104.865-23.486a3.997 3.997 0 0 1 4.777 3.029L724.5 391.833a3.999 3.999 0 0 1-.224 2.443c-1.628 3.817-40.045 92.512-91.594 92.512zm-37.275-179.643 22.852 102.032a4 4 0 0 1-.289 2.587c-.183.386-18.151 38.825-6.961 57.294 3.72 6.141 10.337 9.314 20.229 9.702 44.003 1.721 80.455-75.979 85.167-86.464l-23.939-106.889z" fill="#3375dd"/><path d="M631.083 482.757s71.463-90.033 89.515-90.05 22.982 0 22.982 0c-7.943 37.59-49.3 96.022-112.497 96.022-47.742 0-64.197-47.999-54.719-76.565l21.778-2.534 32.94 73.126z" fill="#a5ccf8"/><path d="M631.083 492.729c-25.932 0-40.788-13.041-48.684-23.981-11.893-16.477-15.844-39.723-9.831-57.843a3.998 3.998 0 0 1 3.334-2.713l21.778-2.534a3.993 3.993 0 0 1 4.109 2.33l30.264 67.184c6.459-7.964 19.74-24.106 34.036-40.099 41.436-46.354 50.931-46.362 54.505-46.366 18.065-.016 23 0 23 0a4.001 4.001 0 0 1 3.9 4.827c-4.525 21.414-18.552 45.977-36.608 64.103-15.947 16.009-42.736 35.092-79.802 35.092zM734.58 396.7c-3.403 0-7.961.002-13.979.007-2.227.002-12.307 3.158-48.527 43.673-18.041 20.18-34.464 40.614-37.396 44.284 56.149-2.041 93.882-51.544 103.818-87.963h-3.916zm-155.142 19.134c-4.149 15.414-.488 34.466 9.448 48.232 6.44 8.923 18.292 19.468 38.666 20.569a3.928 3.928 0 0 1-.115-.235l-31.738-70.458-16.26 1.892z" fill="#3375dd"/><path d="M627.839 856.848a4 4 0 0 1-3.667-2.407c-12.535-28.881-29.918-115.424-42.272-210.457-6.669-51.302-20.941-176.665-9.454-232.623a4 4 0 0 1 7.837 1.609c-7.801 38.001-4.231 123.976 9.55 229.983 10.66 82.002 24.998 157.425 36.624 194.337 2.053-12.066 4.086-24.287 6.204-37.007 19.974-120.017 42.614-256.047 107.234-409.131a4 4 0 1 1 7.37 3.112c-64.254 152.216-86.811 287.752-106.713 407.333-2.992 17.98-5.819 34.963-8.769 51.937a4 4 0 0 1-3.943 3.315z" fill="#3375dd"/><path d="m570.753 857.19 114.29-6.66 9.175 157.454-114.29 6.66z" fill="#a5ccf8"/><path d="M579.931 1018.642a3.996 3.996 0 0 1-3.993-3.767l-9.175-157.454a4 4 0 0 1 3.76-4.226l114.29-6.66a4.004 4.004 0 0 1 4.226 3.76l9.175 157.454a4 4 0 0 1-3.76 4.226l-114.29 6.66a4.565 4.565 0 0 1-.233.007zm-4.949-157.693 8.71 149.467 106.303-6.195-8.71-149.467z" fill="#3375dd"/><path d="m589.038 884.271 80.989-4.719 6.65 114.118-80.989 4.72z" fill="#fff"/><path d="M595.691 1002.388a3.996 3.996 0 0 1-3.993-3.767l-6.65-114.119a4 4 0 0 1 3.76-4.226l80.988-4.72a4.002 4.002 0 0 1 4.226 3.76l6.65 114.119a4 4 0 0 1-3.76 4.226l-80.989 4.72a4.565 4.565 0 0 1-.233.007zm-2.424-114.358 6.185 106.132 73.002-4.254-6.185-106.132-73.001 4.254z" fill="#3375dd"/><path d="m622.452 964.105 23.661-1.379c15.82-.922 29.412 11.174 30.334 26.993l.23 3.951-80.989 4.72-.23-3.951c-.922-15.82 11.174-29.412 26.993-30.334z" fill="#3375dd"/><path d="M595.691 1002.388a3.996 3.996 0 0 1-3.993-3.768l-.23-3.951c-.509-8.723 2.41-17.122 8.219-23.649 5.809-6.528 13.812-10.402 22.535-10.911l23.661-1.379c8.729-.509 17.122 2.41 23.649 8.219 6.528 5.809 10.403 13.812 10.911 22.534l.23 3.952a4 4 0 0 1-3.76 4.226l-80.989 4.72a4.565 4.565 0 0 1-.233.007zm50.657-35.671-23.661 1.379c-6.59.384-12.636 3.311-17.024 8.242a24.556 24.556 0 0 0-6.211 17.824l73.002-4.254c-.815-13.583-12.513-23.984-26.106-23.19zm-.233-3.993h.01z" fill="#3375dd"/><ellipse cx="633.316" cy="946.791" fill="#fff" rx="22.197" ry="25.075" transform="matrix(.99830647 -.05817387 .05817387 .99830647 -54.008 38.447)"/><path d="M633.594 975.858c-6.567 0-12.824-2.679-17.752-7.632-5.15-5.177-8.233-12.248-8.679-19.91-.933-16.005 10.041-29.709 24.461-30.55 7.083-.405 13.885 2.284 19.165 7.591 5.15 5.177 8.233 12.248 8.679 19.91.447 7.663-1.793 15.044-6.308 20.785-4.628 5.885-11.075 9.353-18.154 9.765-.472.027-.943.042-1.413.042zm-.576-50.133c-.309 0-.618.009-.928.027-10.017.584-17.616 10.497-16.94 22.098.333 5.71 2.593 10.943 6.364 14.734 3.642 3.661 8.275 5.522 13.028 5.247 4.76-.277 9.139-2.666 12.331-6.724 3.305-4.203 4.942-9.664 4.61-15.374-.333-5.71-2.593-10.943-6.364-14.734-3.404-3.422-7.67-5.273-12.1-5.273z" fill="#3375dd"/><path d="M657.867 936.889c-.656-11.256-12.4-19.728-26.23-18.922-13.831.806-24.511 10.584-23.855 21.84s50.741 8.337 50.086-2.919z" fill="#a5ccf8"/><path d="M628.501 950.929c-9.174 0-24.163-1.455-24.713-10.888-.783-13.44 11.605-25.133 27.616-26.066 16.005-.935 29.673 9.242 30.457 22.682.672 11.539-21.5 13.73-28.311 14.127a88.184 88.184 0 0 1-5.048.145zm4.956-29.015c-.525 0-1.055.015-1.588.046-11.606.677-20.621 8.579-20.095 17.615.759 1.495 8.556 3.968 21.305 3.222 12.66-.737 20.101-4.05 20.792-5.734-.54-8.593-9.532-15.149-20.413-15.149zm-19.943-75.584 27.796-1.62.972 16.679-27.797 1.62z" fill="#3375dd"/><path d="M614.487 867.007a3.996 3.996 0 0 1-3.993-3.768l-.972-16.678a4 4 0 0 1 3.76-4.226l27.797-1.62a3.992 3.992 0 0 1 4.226 3.76l.972 16.678a4 4 0 0 1-3.761 4.226l-27.797 1.62a4.526 4.526 0 0 1-.232.007zm3.255-16.917.506 8.691 19.811-1.154-.506-8.691z" fill="#3375dd"/><path d="M631.083 482.757c12.592-23.775 76.821-121.985 96.401-117.545 33.371 7.567 41.382 82.593 32.29 120.525 0 0-51.885-42.094-68.639-37.833-15.496 3.941-60.052 34.853-60.052 34.853z" fill="#a5ccf8"/><path d="M759.774 489.737a4 4 0 0 1-2.521-.894c-19.46-15.785-54.35-39.803-65.133-37.063-12.133 3.086-46.528 25.779-58.757 34.263a4 4 0 0 1-5.815-5.158c6.316-11.925 25.783-42.84 45.906-69.87 11.325-15.212 21.301-27.15 29.652-35.484 11.111-11.091 19.14-15.609 25.262-14.22 8.827 2.001 16.447 8.074 22.649 18.048 16.564 26.64 19.912 76.994 12.646 107.31a4 4 0 0 1-3.889 3.068zm-65.963-46.19c5.331 0 16.417 2.611 40.137 18.342 9.36 6.208 17.991 12.675 23.21 16.704 4.975-28.63 1.273-72.162-12.934-95.009-5.031-8.091-10.961-12.959-17.625-14.471-1.048-.239-11.268-.95-46.728 46.68-13.947 18.734-27.544 39.298-36.559 53.946 14.643-9.567 36.483-23.078 46.837-25.711.752-.191 1.889-.48 3.662-.48z" fill="#3375dd"/><path d="M631.083 482.757s-23.684-42.042-21.669-94.776c-16.374-16.512-79.741 41.122-70.794 94.807 0 0 25.129-41.587 52.011-34.501 17.019 4.487 40.451 34.469 40.451 34.469z" fill="#a5ccf8"/><path d="M538.621 486.787a3.999 3.999 0 0 1-3.947-3.342c-6.779-40.676 26.132-84.633 52.712-98.241 14.374-7.359 21.75-3.185 24.868-.041a4.002 4.002 0 0 1 1.157 2.969c-1.95 51.013 20.926 92.249 21.157 92.66a4 4 0 0 1-6.636 4.428c-6.292-8.046-25.443-29.671-38.32-33.065-23.672-6.236-47.333 32.313-47.569 32.703a4.002 4.002 0 0 1-3.421 1.929zm63.12-97.685c-2.864 0-6.528 1.084-10.709 3.225-21.493 11.003-48.597 45.474-49.238 78.949 9.698-12.53 28.887-32.384 49.856-26.855 8.405 2.215 17.965 9.826 25.897 17.474-6.252-17.237-12.963-42.837-12.198-72.002-.987-.527-2.201-.79-3.609-.79z" fill="#3375dd"/><path d="M707.426 321.135c23.271-30.538 39.23-67.893 45.83-111.105C771.621 89.791 624.106-41.268 506.904 37.958c-85.836 58.023-119.475 208.81-94.132 285.708 23.632 71.707 106.178 101.361 180.347 77.12 23.09-7.547 44.411-18.03 63.508-31.238" fill="#fff"/><path d="M541.185 413.166c-20.31 0-40.244-3.76-58.696-11.254-35.842-14.557-61.95-41.901-73.516-76.994-12.822-38.905-10.778-97.266 5.333-152.308C432.4 110.798 464.489 61.8 504.662 34.644 530.676 17.06 559.1 8.743 589.156 9.925c26.966 1.061 54.529 10.04 79.71 25.966 61.763 39.065 98.09 110.922 88.342 174.743-6.562 42.963-22.242 80.957-46.603 112.925a4 4 0 1 1-6.363-4.849c23.541-30.891 38.7-67.66 45.058-109.285 9.283-60.775-25.551-129.355-84.71-166.773-51.706-32.704-108.365-33.207-155.447-1.381-38.634 26.116-69.587 73.557-87.159 133.586-15.681 53.569-17.755 110.109-5.414 147.557 22 66.752 99.003 99.508 175.306 74.57 22.707-7.421 43.727-17.759 62.475-30.726a4 4 0 1 1 4.55 6.58c-19.384 13.406-41.099 24.088-64.541 31.75-17.513 5.724-35.488 8.577-53.177 8.578z" fill="#3375dd"/><path d="M776.442 145.412c8.89 50.01-7.557 97.277-14.793 110.418-14.969 27.182-54.036 19.866-68.213 9.521-9.909-7.23 4.633-87.755 6.567-118.296l76.439-1.644z" fill="#3375dd"/><path d="M726.066 278.671c-13.831 0-27.404-4.555-34.988-10.089-7.663-5.592-6.003-29.715.923-85.265 1.774-14.224 3.449-27.659 4.01-36.515a4 4 0 0 1 3.906-3.746l76.439-1.644a4.01 4.01 0 0 1 4.024 3.299c8.671 48.777-6.515 97.227-15.228 113.048-5.604 10.175-14.919 16.965-26.939 19.634-3.974.882-8.072 1.278-12.147 1.278zm-22.342-127.695c-.736 8.88-2.222 20.802-3.785 33.331-2.073 16.627-4.423 35.473-5.424 50.557-1.526 23.007.859 26.793 1.353 27.319 8.446 6.154 25.994 10.645 40.611 7.401 9.85-2.188 17.139-7.464 21.666-15.684 5.235-9.506 22.687-54.461 14.921-104.415l-69.341 1.491z" fill="#3375dd"/><path d="M680.2 208.07c-.237-14.314 1.052-45.575-4.465-61.118-33.541-94.503-180.359-116.116-224.22-49.59-1.678-43.219 79.078-119.704 199.474-84.251 119.964 35.327 151.906 102.884 145.307 202.083-8.392 3.481-18.132 5.55-28.844 6.355 2.132-23.291-1.339-46.42-7.718-69.465-2.811 26.096-8.785 49.754-20.524 68.967-18.557-1.808-38.683-6.316-59.011-12.982z" fill="#a5ccf8"/><path d="M767.452 225.551a4 4 0 0 1-3.983-4.364c1.361-14.87.435-30.64-2.832-47.793-3.796 19.818-9.745 36.212-18.014 49.745a4.007 4.007 0 0 1-3.801 1.896c-18.625-1.814-38.768-6.243-59.87-13.163a3.999 3.999 0 0 1-2.753-3.735c-.043-2.616-.036-5.699-.028-9.268.034-15.327.085-38.488-4.206-50.578-15.815-44.56-61.423-77.653-116.19-84.308-44.24-5.376-82.906 8.258-100.921 35.582a3.999 3.999 0 0 1-7.336-2.047c-.78-20.102 13.976-44.458 38.511-63.563 20.618-16.055 78.075-50.599 166.089-24.68 58.889 17.341 98.902 43.094 122.327 78.729 21.263 32.346 29.474 72.846 25.841 127.457a4 4 0 0 1-2.458 3.429c-8.573 3.556-18.692 5.793-30.076 6.649-.1.007-.2.011-.3.011zm-7.715-77.466a4.001 4.001 0 0 1 3.853 2.933c6.714 24.257 9.411 45.94 8.208 66.104 7.655-.877 14.581-2.458 20.667-4.719 6.428-107.068-35.039-163.778-142.606-195.455-84.462-24.871-139.271 8.021-158.915 23.318-16.712 13.014-28.725 28.898-33.354 43.341 21.929-22.08 58.439-32.515 99.15-27.567 26.765 3.252 52.19 12.684 73.527 27.276 23.435 16.027 40.461 37.569 49.238 62.298 4.755 13.397 4.704 36.443 4.667 53.271-.005 2.294-.01 4.385 0 6.265 18.602 5.931 36.375 9.847 52.908 11.66 9.641-16.687 15.758-38.037 18.679-65.153a4.001 4.001 0 0 1 3.98-3.572z" fill="#3375dd"/><path d="M691.343 266.286c10.08-18.56 32.149-28.079 53.112-21.627 23.908 7.359 37.324 32.706 29.965 56.614s-32.706 37.324-56.614 29.965a45.082 45.082 0 0 1-20.941-13.659" fill="#fff"/><path d="M731.103 337.246c-4.792 0-9.66-.705-14.473-2.187a49.156 49.156 0 0 1-22.792-14.869 4.001 4.001 0 0 1 6.057-5.227 41.175 41.175 0 0 0 19.089 12.45c21.762 6.702 44.915-5.557 51.614-27.318 3.245-10.542 2.19-21.716-2.97-31.465s-13.807-16.904-24.349-20.149c-18.724-5.763-39.087 2.527-48.42 19.713a4.001 4.001 0 0 1-7.03-3.818c11.144-20.52 35.452-30.42 57.804-23.541 12.584 3.874 22.906 12.416 29.066 24.053 6.159 11.637 7.418 24.977 3.544 37.561-6.514 21.164-26.07 34.796-47.14 34.797zm-143.487-115.43c-12.216-7.396-25.135-11.149-40.922-14.962-10.123-2.445-9.238-14.055 5.744-18.714 14.081-4.378 39.992 4.417 47.201 17.784 7.52 13.944-2.052 21.927-12.023 15.891z" fill="#3375dd"/><path d="M594.275 227.852c-2.829 0-5.846-.868-8.73-2.614-11.229-6.799-23.093-10.463-39.79-14.495-5.857-1.414-9.598-5.468-9.763-10.581-.171-5.311 3.747-12.261 15.258-15.841 15.107-4.697 43.539 4.184 51.909 19.705 5.271 9.774 3.147 17.064-.599 20.628-2.235 2.126-5.144 3.197-8.285 3.197zm-33.436-36.849c-2.666 0-5.122.307-7.214.958-7.187 2.234-9.701 5.975-9.637 7.943.064 1.985 2.57 2.802 3.645 3.062 17.46 4.216 29.939 8.092 42.056 15.428 2.913 1.764 5.801 1.946 7.358.465 1.531-1.457 2.208-5.221-.928-11.035-5.354-9.926-22.653-16.821-35.279-16.821zm-79.756 2.712c-14.091-2.322-27.478-1.001-43.551 1.331-10.306 1.496-13.802-9.612-1.628-19.507 11.442-9.301 38.766-10.773 50.429-1.046 12.167 10.147 6.251 21.118-5.25 19.222z" fill="#3375dd"/><path d="M435.728 199.18c-4.888 0-8.844-2.321-10.619-6.367-2.134-4.866-1.082-12.775 8.272-20.379 12.28-9.981 41.972-12.308 55.514-1.014 8.528 7.112 9.268 14.67 7.116 19.371-2.439 5.331-8.556 8.026-15.578 6.87-12.954-2.136-25.329-1.124-42.327 1.343-.812.118-1.607.176-2.378.176zm27.424-27.381c-9.567 0-19.417 2.529-24.725 6.843-5.84 4.747-6.783 9.154-5.992 10.958.798 1.819 3.429 1.646 4.522 1.487 17.776-2.58 30.803-3.622 44.777-1.319 3.358.552 6.109-.351 7.003-2.306.88-1.922.107-5.668-4.965-9.898-4.783-3.989-12.603-5.765-20.62-5.765z" fill="#3375dd"/><ellipse cx="555.45" cy="238.175" fill="#3375dd" rx="11.065" ry="9.294" transform="matrix(.16215496 -.98676531 .98676531 .16215496 230.356 747.651)"/><ellipse cx="458.852" cy="224.402" fill="#3375dd" rx="11.065" ry="9.294" transform="matrix(.16215496 -.98676531 .98676531 .16215496 163.012 640.792)"/><path d="M586.037 302.724c3.65 19.15-28.774 39.535-51.35 15.39z" fill="#fff"/><path d="M558.197 333.117c-8.627 0-18.062-3.319-26.433-12.271a3.998 3.998 0 0 1 1.774-6.563l51.35-15.39a4.003 4.003 0 0 1 5.078 3.082c1.964 10.306-4.652 21.562-16.089 27.373-4.49 2.281-9.904 3.769-15.68 3.769zm-15.531-13.218c12.143 8.861 23.921 4.18 27.587 2.317 6.452-3.278 10.835-8.679 11.842-14.135l-39.43 11.818zm179.143-16.087a4.002 4.002 0 0 1-2.242-7.316l24.874-16.8a4 4 0 0 1 4.478 6.63l-24.874 16.8a3.986 3.986 0 0 1-2.235.686z" fill="#3375dd"/><path d="M742.458 310.168a3.997 3.997 0 0 1-3.512-2.081l-16.096-29.41a3.999 3.999 0 1 1 7.017-3.841l16.096 29.41a3.999 3.999 0 0 1-3.505 5.921z" fill="#3375dd"/><path d="M412.755 122.755c13.688-66.039 74.061-100.421 160.094-83.77 97.936 18.955 133.232 80.112 128.507 139.224-77.556-2.648-154.543-12.305-216.484-29.055-2.423-21.903 3.124-42.614 13.978-62.531-25.877 13.35-44.738 29.597-51.943 50.655-12.367-4.478-23.806-9.319-34.151-14.524z" fill="#a5ccf8"/><g fill="#3375dd"><path d="M701.358 182.209c-.046 0-.092 0-.139-.002-80.772-2.758-157.977-13.125-217.392-29.191a4 4 0 0 1-2.932-3.421c-1.958-17.696.907-35.225 8.746-53.265-20.747 12.522-33.534 26.414-38.95 42.244a4 4 0 0 1-5.146 2.466c-12.658-4.583-24.294-9.533-34.587-14.711a4 4 0 0 1-2.119-4.385c7.042-33.973 26.042-60.118 54.945-75.607C492.962 30.7 530.94 26.801 573.61 35.059c46.786 9.055 82.143 27.879 105.088 55.949 20.049 24.525 29.262 54.79 26.646 87.521a4 4 0 0 1-3.985 3.681zm-212.769-36.2c57.519 15.25 131.471 25.178 209.031 28.064 3.439-66.339-43.199-115.226-125.531-131.161-80.986-15.676-139.966 14.042-154.755 77.646 8.283 4.037 17.418 7.927 27.237 11.598 7.832-18.855 25.037-34.947 52.445-49.087a4 4 0 0 1 5.346 5.468c-10.769 19.76-15.286 38.592-13.772 57.471z"/><path d="M568.842 288.725a60.047 60.047 0 0 1-21.438-3.964c-15.063-5.744-26.988-17.01-33.579-31.723-6.59-14.713-7.056-31.112-1.312-46.175 11.857-31.096 46.802-46.748 77.899-34.89 15.063 5.744 26.988 17.01 33.579 31.723 6.59 14.713 7.056 31.112 1.312 46.176-9.168 24.043-32.14 38.854-56.461 38.854zm.046-112.741c-7.278 0-14.539 1.538-21.38 4.602-12.763 5.716-22.536 16.061-27.519 29.128-10.286 26.974 3.292 57.287 30.266 67.573a52.113 52.113 0 0 0 18.596 3.438c21.1.001 41.024-12.846 48.978-33.704 4.982-13.067 4.578-27.292-1.138-40.055s-16.061-22.536-29.128-27.519a52.34 52.34 0 0 0-18.675-3.464zm-128.346 88.068c-7.262 0-14.539-1.328-21.528-3.994-15.063-5.744-26.988-17.01-33.579-31.723-6.59-14.713-7.056-31.112-1.312-46.175s17.01-26.989 31.723-33.579 31.113-7.056 46.175-1.312c15.063 5.744 26.989 17.01 33.579 31.723 6.589 14.712 7.055 31.112 1.312 46.175-5.744 15.063-17.01 26.988-31.723 33.579-7.886 3.532-16.258 5.305-24.647 5.305zm-.045-112.771c-7.279 0-14.539 1.538-21.38 4.602-12.763 5.716-22.536 16.061-27.519 29.128-10.286 26.974 3.292 57.287 30.266 67.573 13.066 4.982 27.291 4.579 40.055-1.138 12.763-5.716 22.536-16.061 27.519-29.128 4.982-13.067 4.578-27.292-1.138-40.055s-16.061-22.536-29.128-27.519a52.338 52.338 0 0 0-18.674-3.464z"/><path d="M513.685 221.144a3.95 3.95 0 0 1-.73-.067l-17.739-3.274a4.002 4.002 0 0 1 1.452-7.868l17.739 3.274a4.002 4.002 0 0 1-.721 7.934zm224.723 24.869c-.049 0-.098 0-.147-.002l-113.952-4.114a4 4 0 0 1-3.853-4.142c.08-2.208 1.936-3.917 4.142-3.853l113.952 4.114a4 4 0 0 1-.142 7.997zm-107.325 902.348a4 4 0 0 1-4-4v-91.748a4 4 0 0 1 8 0v91.748a4 4 0 0 1-4 4zm302.418-90.559c-22.607-8 21.912-224.673 53.547-215.404s-19.285 227.529-53.547 215.404z"/><path d="M936.288 1062.282c-1.578 0-2.963-.299-4.121-.709-3.384-1.198-13.684-4.843-6.137-63.395 4.25-32.968 12.971-72.265 22.759-102.556 13.627-42.169 26.514-60.832 39.384-57.063 5.343 1.566 9.052 6.823 11.022 15.626 4.502 20.113.163 62.461-11.054 107.887-4.398 17.81-20.311 77.305-40.417 95.134-4.38 3.884-8.29 5.076-11.437 5.076zm-1.452-8.25c.782.275 3.155 1.114 7.581-2.811 12.032-10.669 26.931-46.415 37.957-91.066 10.943-44.315 15.267-85.224 11.015-104.221-1.25-5.586-3.191-9.03-5.464-9.696-4.715-1.386-14.416 8.817-26.226 42.102-10.358 29.194-19.925 69.499-24.967 105.187-6.582 46.587-2.016 59.614.104 60.506z"/></g><path d="M984.667 482.787c47.449 37.649 106.156 95.317 153.287 151.438 85.075 101.303 130.087 190.458 133.785 264.99 6.288 101.124-73.159 165.509-169.818 162.713-95.397-1.039-202.761-44.556-283.871-97.953-86.387-59.912.502-189.985 88.937-133.005 50.822 35.075 149.067 75.545 204.387 70.457-4.299-30.185-31.279-87.307-95.943-164.305-32.128-38.257-67.401-73.971-97.546-101.214" fill="#fff"/><path d="M1107.852 1066.014c-2.011 0-4.022-.029-6.046-.087-86.669-.943-193.595-37.808-285.955-98.611-21.067-14.609-33.749-34.265-36.751-56.894-2.661-20.053 2.505-41.014 14.546-59.022 12.039-18.004 29.429-30.782 48.969-35.979 22.053-5.865 45.062-1.651 66.539 12.188.036.022.071.046.105.07 51.967 35.866 144.257 72.542 197.411 70.064-3.799-18.654-20.584-70.268-94.302-158.047-29.227-34.802-63.734-70.606-97.165-100.818a4 4 0 0 1 5.364-5.936c33.694 30.45 68.472 66.535 97.927 101.609 55.162 65.683 91.363 127.856 96.84 166.313a4.002 4.002 0 0 1-3.594 4.547 109.59 109.59 0 0 1-10.009.435c-55.48.002-145.628-36.134-196.962-71.546-43.266-27.845-84.48-8.354-104.473 21.546-20.01 29.926-22.275 75.5 20.034 104.842 91.051 59.94 196.365 96.312 281.635 97.24 1.949.057 3.897.084 5.834.084 47.953.001 91.878-17.181 121.306-47.602 27.995-28.939 41.357-67.304 38.643-110.948-3.657-73.69-48.355-162.047-132.856-262.666-46.123-54.92-104.638-112.733-152.71-150.877a4 4 0 1 1 4.973-6.267c48.463 38.454 107.421 96.697 153.864 151.999 85.649 101.986 130.975 191.94 134.717 267.364 2.854 45.898-11.281 86.358-40.88 116.957-30.932 31.976-76.954 50.039-127.002 50.041z" fill="#3375dd"/><path d="M966.582 443.643c68.7 36.62 137.354 122.816 186.691 177.715 91.409 101.714 134.181 197.892 138.442 276.866 6.057 112.277-79.762 186.358-189.784 183.608-36.616-.915-85.671-5.947-127.223-21.067 48.57-41.028 66.788-136.104 48.96-194.847 25.925 8.797 46.397 13.01 61.351 14.797-11.739-52.407-128.283-184.481-194.55-243.351" fill="#fff"/><path d="M1107.936 1085.908c-2.029 0-4.06-.025-6.105-.077-28.045-.701-82.031-4.401-128.491-21.307a4 4 0 0 1-1.213-6.815c48.092-40.624 64.854-134.148 47.713-190.629a4 4 0 0 1 5.112-4.95c19.834 6.73 38.159 11.366 54.575 13.811-17.628-53.191-125.782-177.013-191.716-235.586a4 4 0 1 1 5.314-5.98c61.976 55.058 183.389 190.073 195.796 245.467a4 4 0 0 1-4.378 4.846c-16.516-1.974-35.007-6.22-55.054-12.637 7.016 28.654 6.526 64.175-1.505 98.837-8.619 37.199-24.69 68.248-45.583 88.323 43.9 14.64 93.344 17.966 119.63 18.624 56.403 1.407 106.5-17.386 141.027-52.926 31.911-32.847 47.354-76.579 44.663-126.469-4.562-84.557-52.082-179.445-137.423-274.407-7.758-8.632-15.942-17.98-24.607-27.876-46.207-52.774-103.713-118.453-160.99-148.983a4 4 0 0 1 3.763-7.059c58.568 31.219 116.609 97.508 163.246 150.772 8.647 9.876 16.815 19.205 24.539 27.799 44.315 49.312 78.81 99.067 102.524 147.887 22.279 45.861 34.706 90.083 36.937 131.438 2.815 52.176-13.407 97.985-46.913 132.474-34.842 35.863-84.68 55.423-140.86 55.425z" fill="#3375dd"/><path d="M861.365 839.178c-13.038-22.59-14.731-34.964-10.98-50.634 5.787-24.171 28.085-29.247 36.786-12.144s23.897 61.279 42.614 68.855" fill="#fff"/><path d="M929.784 849.256c-.5 0-1.008-.094-1.5-.293-16.172-6.546-28.928-35.528-38.242-56.689-2.47-5.612-4.604-10.458-6.436-14.06-2.84-5.582-7.474-8.426-12.717-7.807-5.72.677-13.503 6.078-16.614 19.068-3.302 13.79-2.576 24.954 10.554 47.703a4 4 0 0 1-6.929 3.999c-12.804-22.186-15.682-35.702-11.405-53.565 3.349-13.988 12.555-23.86 23.454-25.15 8.637-1.021 16.406 3.51 20.788 12.123 1.934 3.801 4.109 8.743 6.627 14.465 8.268 18.784 20.762 47.169 33.922 52.497a4 4 0 0 1-1.502 7.708z" fill="#3375dd"/><path d="M884.167 822.857c-16.226-8.387-15.383-12.616-41.611-32.083-20.531-15.239-59.059-17.441-70.393-17.335-32.122.302-28.388 38.969 7.756 49.018 21.883 6.084 60.652 46.832 60.652 46.832" fill="#fff"/><path d="M840.571 873.289a3.989 3.989 0 0 1-2.898-1.243c-.38-.399-38.258-40.018-58.825-45.735-23.412-6.509-34.163-24.32-32.391-37.774 1.201-9.127 8.576-18.938 25.669-19.098.476-.002 48.082-.236 72.815 18.123 11.884 8.821 18.417 14.675 23.187 18.95 5.839 5.233 9.364 8.392 17.876 12.792a4 4 0 1 1-3.673 7.107c-9.419-4.868-13.446-8.477-19.542-13.94-4.914-4.403-11.029-9.883-22.616-18.484-22.603-16.777-67.507-16.561-67.972-16.546-10.317.097-16.81 4.522-17.813 12.142-1.331 10.114 7.54 23.722 26.603 29.022 22.687 6.308 60.864 46.232 62.479 47.929a4.001 4.001 0 0 1-2.898 6.758z" fill="#3375dd"/><path d="M867.219 865.538c-10.439-4.837-44.521-27.991-67.454-32.514-18.423-3.634-53.092-2.01-67.947 2.897-25.26 8.344-4.687 46.182 30.088 46.277 24.521.067 74.185 27.618 74.185 27.618" fill="#fff"/><path d="M836.088 913.816a3.988 3.988 0 0 1-1.936-.502c-.488-.271-49.048-27.052-72.256-27.116-23.827-.065-42.511-16.907-45.013-32.596-1.609-10.089 3.505-18.118 13.681-21.479 15.796-5.217 51.111-6.745 69.975-3.023 17.338 3.42 40.354 16.821 55.583 25.688 5.42 3.156 10.101 5.881 12.778 7.122a4.001 4.001 0 0 1 1.948 5.311 4.002 4.002 0 0 1-5.311 1.948c-3.016-1.397-7.616-4.076-13.439-7.467-14.768-8.599-37.086-21.593-53.106-24.753-17.506-3.452-51.389-2.028-65.918 2.771-8.089 2.672-8.973 8.339-8.29 12.623 1.68 10.531 15.87 25.798 37.134 25.856 25.26.069 74.051 26.975 76.115 28.12a4 4 0 0 1-1.944 7.499z" fill="#3375dd"/><path d="M842.966 903.226c-12.573-4.164-35.002-20.314-59.25-21.808-24.58-1.514-42.568 8.026-51.21 15.561-19.471 16.978-3.867 35.294 25.677 36.947 23.597 1.32 59.868 30.049 59.868 30.049" fill="#fff"/><path d="M818.047 967.975c-.87 0-1.746-.282-2.48-.864-.353-.279-35.557-27.958-57.609-29.191-19.074-1.067-33.297-8.646-37.118-19.779-1.608-4.684-2.572-14.054 9.036-24.176 4.993-4.354 23.641-18.405 54.085-16.539 17.54 1.081 33.588 9.176 46.483 15.681 5.449 2.749 10.155 5.122 13.779 6.322a4.001 4.001 0 0 1-2.515 7.595c-4.184-1.386-9.134-3.883-14.866-6.774-12.241-6.174-27.475-13.859-43.373-14.838-21.767-1.341-39.241 6.653-48.335 14.583-4.236 3.693-8.842 9.389-6.728 15.549 2.661 7.752 14.716 13.534 29.999 14.389 24.581 1.375 60.607 29.702 62.128 30.907a4 4 0 0 1-2.487 7.136z" fill="#3375dd"/><path d="m987.048 842.398 53.675 16.29c19.458 62.03-3.148 171.925-51.467 219.005l-55.755-19.891c51.781-64.635 67.137-139.833 53.547-215.404z" fill="#a5ccf8"/><path d="M989.256 1081.693a4.01 4.01 0 0 1-1.344-.232l-55.755-19.891a4.002 4.002 0 0 1-1.777-6.268c48.561-60.616 66.795-133.991 52.732-212.195a4 4 0 0 1 5.098-4.536l53.675 16.29a4 4 0 0 1 2.655 2.63c9.678 30.85 9.593 73.562-.231 117.185-10.078 44.749-29.126 83.341-52.26 105.882a4 4 0 0 1-2.792 1.135zm-49.176-25.791 48.14 17.174c21.264-21.722 38.797-58.036 48.284-100.159 9.17-40.718 9.523-81.997 1.012-111.022l-45.446-13.792c12.083 76.269-5.83 147.868-51.99 207.8zm167.826-169.523c-7.555 0-15.803-.429-23.545-1.718a4 4 0 0 1 1.314-7.892c21.499 3.579 48.2.019 48.468-.018a4 4 0 1 1 1.079 7.927c-.75.102-12.739 1.7-27.315 1.7z" fill="#3375dd"/></svg></g></svg>