<svg xmlns="http://www.w3.org/2000/svg" viewBox="0 0 3000 3000" width="3000" height="3000"><g transform="translate(1652.0 232.0) rotate(0.0 623.0 369.0) scale(2.18423668290528 2.189079518758454)"><svg width="570.451" height="337.128" viewBox="0 0 570.451 337.128"><path d="M563.936 192.448c-6.168-23.188-22.864-41.335-45.176-52.269 10.46-35.396 2.256-73.527-24.708-98.321-39.122-35.973-102.917-30.247-142.49 12.79a116.953 116.953 0 0 0-10.704 13.519c-9.818-24.316-34.692-40.396-62.144-37.85-33.52 3.108-58.174 32.802-55.065 66.322a60.808 60.808 0 0 0 5.725 20.737c-32.88 2.876-58.608 21.885-60.158 46.495-1.234 19.596 13.19 37.591 35.403 47.635-8.426 10.777-13.648 23.483-14.519 37.308-2.715 43.112 37.857 80.755 90.62 84.078 39.443 2.484 74.53-14.915 90.868-41.867 25.945 21.275 65.963 29.578 106.399 18.822 60.439-16.077 98.921-68.638 85.95-117.4z" fill="#fff"/><path d="M288.122 337.126c-2.538 0-5.09-.08-7.655-.241-54.88-3.457-97.211-43.077-94.361-88.321.792-12.574 5.078-24.771 12.456-35.553-21.892-11.402-34.562-29.99-33.339-49.391.817-12.975 7.883-25.165 19.897-34.327 10.265-7.829 23.765-13.166 38.467-15.275a64.783 64.783 0 0 1-3.921-17.01c-3.307-35.663 23.016-67.367 58.679-70.674 25.983-2.423 51.051 11.343 63.242 33.985a121.62 121.62 0 0 1 7.031-8.379C389.619 7.35 456.076 1.504 496.76 38.914c26.446 24.317 36.54 62.065 26.734 99.188 22.643 11.986 38.321 30.813 44.308 53.317 6.59 24.774.877 51.179-16.084 74.348-16.772 22.909-42.592 39.937-72.703 47.945-38.427 10.223-78.734 3.747-106.444-16.847-17.228 25.003-49.343 40.26-84.448 40.26zM284.25 34.061c-1.715 0-3.438.078-5.167.239-31.27 2.899-54.352 30.699-51.452 61.97a56.733 56.733 0 0 0 5.348 19.376 4 4 0 0 1-3.257 5.715c-31.359 2.743-55.126 20.728-56.515 42.763-1.088 17.266 11.58 34.026 33.059 43.739a3.999 3.999 0 0 1 1.503 6.108c-8.159 10.436-12.889 22.571-13.678 35.096-2.572 40.841 36.402 76.655 86.88 79.834 36.843 2.322 71.077-13.359 87.196-39.948a3.997 3.997 0 0 1 5.957-1.019c25.789 21.146 65.193 28.062 102.834 18.05 28.351-7.541 52.609-23.501 68.305-44.94 15.505-21.179 20.764-45.174 14.808-67.565-5.641-21.206-20.937-38.858-43.071-49.705a4.001 4.001 0 0 1-2.076-4.726c10.4-35.194 1.365-71.307-23.579-94.243-37.436-34.422-98.821-28.791-136.838 12.553a113.3 113.3 0 0 0-10.338 13.057 4 4 0 0 1-7.019-.747c-8.688-21.518-29.964-35.604-52.898-35.604z" fill="#3375e0"/><circle cx="141.34" cy="42.861" fill="#fff" r="38.861"/><path d="M141.341 85.721c-23.633 0-42.861-19.228-42.861-42.86S117.707 0 141.341 0s42.86 19.228 42.86 42.86-19.227 42.86-42.86 42.86zm0-77.721c-19.222 0-34.861 15.639-34.861 34.86s15.639 34.86 34.861 34.86 34.86-15.639 34.86-34.86S160.563 8 141.341 8z" fill="#3375e0"/><circle cx="25.479" cy="68.354" fill="#fff" r="21.479"/><path d="M25.479 93.833C11.43 93.833 0 82.403 0 68.354s11.43-25.479 25.479-25.479 25.479 11.43 25.479 25.479-11.43 25.479-25.479 25.479zm0-42.958C15.841 50.875 8 58.716 8 68.354s7.841 17.479 17.479 17.479 17.479-7.841 17.479-17.479-7.841-17.479-17.479-17.479z" fill="#3375e0"/></svg></g><g transform="translate(84.0 246.0) rotate(0.0 1208.0 1211.0) scale(2.191248068146364 2.1913118376076883)"><svg width="1102.568" height="1105.274" viewBox="0 0 1102.568 1105.274"><path d="M555.08 451.7c-3.927 38.613-106.673 47.212-152.184 0V332.22H555.08z" fill="#fff"/><path d="M489.686 488.019c-31.929 0-67.386-10.426-89.669-33.542a4 4 0 0 1-1.12-2.776v-119.48a4 4 0 0 1 4-4h152.184a4 4 0 0 1 4 4v119.48c0 .135-.007.271-.021.404-1.321 12.99-12.117 23.625-30.398 29.945-11.319 3.913-24.802 5.969-38.976 5.969zm-82.79-37.957c29.354 29.173 84.953 36.25 119.151 24.428 8.742-3.022 23.575-10.02 25.033-23.002V336.22H406.896zm148.185 1.638h.01z" fill="#3375e0"/><path d="M378.457 420.609s84.186 40.979 125.732 37.669c41.545-3.31 67.748-28.072 67.748-28.072s9.591 64.509-71.136 78.054-122.343-87.65-122.343-87.65z" fill="#fff"/><path d="M486.275 513.485c-28.895 0-56.272-14.091-79.939-41.35-20.687-23.826-31.143-48.947-31.578-50.005a4.002 4.002 0 0 1 5.45-5.119c.833.405 83.688 40.469 123.663 37.277 39.547-3.15 65.069-26.758 65.322-26.995a4 4 0 0 1 6.7 2.322c.104.704 2.473 17.469-5.58 36.121-7.413 17.171-25.375 39.171-68.851 46.466a91.77 91.77 0 0 1-15.188 1.281zm-99.4-84.535c4.871 9.391 13.475 24.124 25.636 38.096 26.192 30.09 55.673 42.629 87.627 37.268 31.889-5.35 52.98-19.285 62.688-41.418 4.137-9.433 5.244-18.463 5.424-24.531-10.415 7.723-32.895 21.443-63.743 23.9-33.93 2.696-93.734-22.486-117.632-33.314z" fill="#3375e0"/><path d="M402.897 332.22c-26.865-26.877-47.459-61.408-59.647-102.922-33.914-115.513 93.452-263.576 218.892-201.362C654.011 73.5 706.947 216.958 692.257 295.739c-13.698 73.462-90.746 113.465-166.704 99.495-23.647-4.349-45.947-11.813-66.426-22.243" fill="#fff"/><path d="M555.983 402.027c-10.316 0-20.744-.945-31.154-2.86-24.012-4.415-46.728-12.023-67.518-22.611a4.001 4.001 0 0 1 3.631-7.129c20.101 10.237 42.083 17.597 65.334 21.873 78.118 14.366 149.299-27.929 162.048-96.295 7.152-38.356-2.358-93.533-24.82-143.998-25.17-56.55-61.799-98.984-103.14-119.488-50.376-24.981-105.87-17.001-152.25 21.905-53.069 44.517-78.164 116.375-61.026 174.747 11.739 39.982 31.468 74.038 58.638 101.221a4 4 0 0 1-5.658 5.657c-28.128-28.141-48.536-63.341-60.656-104.623-18.006-61.328 8.131-136.634 63.561-183.131 22.599-18.956 48.455-31.412 74.773-36.02 29.333-5.134 58.325-.735 86.174 13.078 43.006 21.329 80.968 65.153 106.894 123.401 23.085 51.867 32.809 108.853 25.375 148.718-6.707 35.964-28.708 66.248-61.95 85.273-23.368 13.373-50.384 20.281-78.255 20.282z" fill="#3375e0"/><path d="M311.962 168.98c-2.107 50.23 20.276 94.419 29.112 106.353 18.277 24.683 55.631 12.341 68.169.319 8.763-8.403-16.149-85.466-22.085-115.168z" fill="#3375e0"/><path d="M371.245 293.606c-1.448 0-2.894-.059-4.333-.181-12.156-1.029-22.202-6.463-29.052-15.713-10.641-14.371-31.949-59.898-29.894-108.901a4 4 0 0 1 3.547-3.807l75.196-8.495a4.001 4.001 0 0 1 4.372 3.19c1.721 8.611 5.141 21.566 8.761 35.282 14.145 53.591 18.962 77.044 12.169 83.557-7.981 7.652-24.457 15.067-40.766 15.067zm-55.393-121.041c-.999 49.998 22.048 91.759 28.437 100.386 5.52 7.455 13.358 11.661 23.298 12.503 14.721 1.255 31.285-5.44 38.837-12.642.446-.68 2.152-4.936-2.319-26.952-2.976-14.656-7.769-32.814-11.998-48.836-3.185-12.066-6.215-23.548-8.112-32.157l-68.142 7.698zm90.622 100.2z" fill="#3375e0"/><path d="M414.651 217.715c-1.661-14.071-7.059-44.565-3.703-60.541 20.403-97.133 161.558-137.748 213.379-78.293-4.069-42.616-93.397-106.961-206.805-56.263-113.001 50.515-135.399 121.006-115.809 217.438 8.692 2.305 18.52 3.046 29.133 2.42-5.171-22.564-4.825-45.71-1.616-69.159 6.208 25.226 15.196 47.642 29.252 64.936 17.963-4.227 37.109-11.311 56.167-20.538z" fill="#a8cffb"/><path d="M323.826 246.688c-8.441 0-16.197-.926-23.136-2.766a4 4 0 0 1-2.895-3.07c-10.787-53.096-8.087-93.917 8.496-128.465 18.27-38.062 54.12-68.62 109.6-93.421 82.925-37.072 143.866-10.776 166.218 2.247 26.604 15.503 44.307 37.454 46.201 57.288a4.002 4.002 0 0 1-2.402 4.055 3.995 3.995 0 0 1-4.595-1.047c-21.273-24.407-60.992-32.661-103.657-21.544-52.827 13.767-93.175 52.246-102.792 98.031-2.608 12.419.504 35.125 2.563 50.151.48 3.502.895 6.526 1.198 9.099a4 4 0 0 1-2.229 4.069c-19.785 9.578-38.961 16.587-56.994 20.831a4 4 0 0 1-4.021-1.371c-9.868-12.141-17.852-27.375-24.187-46.223-.915 17.169.266 32.687 3.553 47.029a4.002 4.002 0 0 1-3.663 4.887c-2.47.146-4.892.219-7.257.219zm-18.687-9.912c6.245 1.403 13.224 2.03 20.812 1.891-3.838-19.611-4.057-41.228-.681-65.893a3.998 3.998 0 0 1 3.752-3.452 4.003 4.003 0 0 1 4.095 3.038c6.447 26.195 15.263 46.316 26.915 61.403 15.959-3.963 32.855-10.147 50.295-18.412-.239-1.838-.519-3.88-.826-6.118-2.262-16.504-5.36-39.106-2.466-52.882 5.341-25.425 19.197-48.815 40.072-67.641 19.004-17.14 42.703-29.756 68.533-36.487 39.222-10.22 76.361-4.849 100.802 13.832-6.479-13.497-20.321-27.42-38.359-37.931-21.287-12.403-79.383-37.416-158.926-1.856-101.29 45.28-134.46 106.381-114.017 210.508z" fill="#3375e0"/><path d="M411.419 276.292c-12.341-16.872-35.248-23.292-54.957-14.19-22.478 10.38-32.286 37.016-21.906 59.495 10.38 22.478 37.016 32.286 59.495 21.906a44.625 44.625 0 0 0 18.735-16.168" fill="#fff"/><g fill="#3375e0"><path d="M375.283 351.658a48.856 48.856 0 0 1-16.899-3.034c-12.239-4.506-21.992-13.51-27.459-25.352-5.468-11.841-5.998-25.103-1.491-37.343 4.507-12.239 13.51-21.991 25.352-27.46 21.032-9.709 46.207-3.208 59.862 15.461a4 4 0 0 1-6.457 4.723c-11.416-15.606-32.465-21.039-50.052-12.92-9.901 4.572-17.429 12.727-21.198 22.961-3.768 10.234-3.326 21.323 1.247 31.225 9.439 20.439 33.745 29.393 54.187 19.951a40.72 40.72 0 0 0 17.061-14.722 4 4 0 1 1 6.701 4.371 48.717 48.717 0 0 1-20.407 17.614c-6.52 3.011-13.472 4.523-20.445 4.524zm132.002-132.703c11.005-8.87 23.18-14.26 38.162-20.087 9.606-3.736 7.202-15.008-8.109-17.596-14.391-2.432-38.644 9.622-43.948 23.686-5.533 14.673 4.912 21.237 13.894 13.998z"/><path d="M499.795 225.917c-2.461 0-4.81-.715-6.817-2.168-4.158-3.009-7.216-9.896-3.33-20.202 6.164-16.347 32.902-28.821 48.356-26.22 11.788 1.992 16.56 8.31 17.096 13.557.516 5.056-2.627 9.544-8.203 11.712-15.841 6.161-26.99 11.323-37.103 19.474-3.159 2.546-6.681 3.848-10 3.848zm33.553-40.962c-12.625 0-31.854 9.851-36.214 21.414-2.298 6.096-1.148 9.681.535 10.899 1.708 1.234 4.498.676 7.106-1.428 10.92-8.802 22.65-14.255 39.223-20.7 1.011-.394 3.341-1.517 3.144-3.443-.197-1.928-3.148-5.244-10.47-6.481a19.975 19.975 0 0 0-3.324-.261zm74.718-7.652c13.514-4.141 26.821-4.616 42.896-4.453 10.307.104 12.268-11.253-.983-19.35-12.454-7.61-39.45-5.441-49.604 5.643-10.593 11.562-3.339 21.541 7.692 18.161z"/><path d="M603.862 181.965c-4.608 0-8.598-1.952-10.86-5.533-2.74-4.34-3.018-11.871 4.423-19.992 11.8-12.882 41.262-14.528 54.639-6.354 10.201 6.232 12.282 13.871 10.828 18.941-1.387 4.837-5.897 7.822-11.793 7.823h-.176c-16.993-.177-29.266.472-41.684 4.277-1.839.563-3.651.838-5.376.838zm4.204-4.662h.01zm22.053-24.323c-10.285 0-21.345 2.914-26.795 8.863-4.4 4.804-4.667 8.56-3.557 10.316 1.126 1.782 3.924 2.301 7.128 1.318 13.409-4.11 26.329-4.813 44.108-4.629 1.107.045 3.666-.166 4.199-2.027.534-1.862-.972-6.038-7.309-9.91-4.269-2.608-10.846-3.932-17.774-3.932z"/><ellipse cx="540.999" cy="230.748" rx="9.199" ry="10.951" transform="matrix(.95625371 -.29253861 .29253861 .95625371 -43.836 168.36)"/><ellipse cx="633.931" cy="204.464" rx="9.199" ry="10.951" transform="matrix(.95625371 -.29253861 .29253861 .95625371 -32.082 194.397)"/><path d="M548.179 318.226c-3.041 0-6.069-.326-9.021-.994-10.212-2.311-18.434-8.431-23.152-17.233a4 4 0 0 1 7.052-3.779c3.605 6.728 9.95 11.419 17.865 13.21 9.655 2.184 20.362-.147 28.645-6.236a4 4 0 1 1 4.738 6.446c-7.61 5.595-16.924 8.588-26.127 8.588zm-162.21-1.02a3.98 3.98 0 0 1-1.773-.417L357.575 303.6a3.999 3.999 0 0 1-1.808-5.359 3.998 3.998 0 0 1 5.36-1.809l26.621 13.189a4 4 0 0 1-1.779 7.585z"/><path d="M366.557 326.171a4.002 4.002 0 0 1-3.733-5.436l11.899-30.977a4 4 0 1 1 7.467 2.869l-11.899 30.977a4.002 4.002 0 0 1-3.735 2.566z"/></g><path d="M665.705 98.663c-22.16-62.968-85.926-88.709-168.113-61-93.559 31.544-120.094 96.2-107.641 153.558 75.725-12.853 149.964-32.506 208.507-57.127-.52-21.805-8.7-41.387-21.98-59.488 27.148 9.673 47.797 23.116 57.649 42.818 11.539-6.028 22.119-12.289 31.578-18.762z" fill="#a8cffb"/><path d="M389.947 195.223c-1.85 0-3.5-1.287-3.905-3.152-6.897-31.771-1.859-62.687 14.568-89.403 18.801-30.575 51-53.721 95.705-68.793 40.772-13.746 78.548-14.943 109.246-3.461 30.412 11.376 52.514 34.518 63.917 66.922a4 4 0 0 1-1.514 4.629c-9.408 6.439-20.17 12.834-31.985 19.007a4.001 4.001 0 0 1-5.43-1.756c-7.389-14.778-21.723-26.69-43.654-36.217 10.033 16.629 15.143 33.417 15.562 51.001a4 4 0 0 1-2.448 3.783c-56.155 23.616-130.517 43.995-209.388 57.383a3.956 3.956 0 0 1-.673.058zM560.056 30.52c-18.811 0-39.376 3.581-61.186 10.935-78.616 26.506-117.889 80.59-105.77 145.17 75.667-13.086 146.868-32.597 201.252-55.149-1.017-18.7-7.936-36.558-21.1-54.501a3.998 3.998 0 0 1 .017-4.755 3.996 3.996 0 0 1 4.551-1.379c28.745 10.241 47.75 23.745 57.936 41.198 9.124-4.89 17.547-9.899 25.117-14.94-16.454-43.354-52.934-66.578-100.818-66.578z" fill="#3375e0"/><path d="M526.601 282.677c-21.208 0-41.78-11.299-52.61-31.199-7.631-14.026-9.344-30.185-4.822-45.498 4.521-15.314 14.736-27.951 28.762-35.582 14.025-7.631 30.184-9.343 45.498-4.823 15.314 4.521 27.951 14.736 35.582 28.762 15.753 28.954 5.014 65.327-23.939 81.081a59.418 59.418 0 0 1-28.47 7.26zm-.171-111.573c-8.53 0-16.974 2.13-24.676 6.321-12.148 6.609-20.996 17.556-24.913 30.819-3.917 13.265-2.433 27.261 4.177 39.409 13.645 25.08 45.15 34.379 70.229 20.736 25.079-13.646 34.38-45.15 20.735-70.229-6.61-12.149-17.556-20.997-30.82-24.913a51.965 51.965 0 0 0-14.733-2.144zm122.843 70.364c-21.209 0-41.781-11.296-52.611-31.199-7.631-14.026-9.344-30.185-4.822-45.498 4.521-15.314 14.736-27.951 28.762-35.582 14.026-7.632 30.184-9.344 45.498-4.823s27.951 14.736 35.582 28.762c15.754 28.954 5.015 65.327-23.939 81.081a59.414 59.414 0 0 1-28.469 7.26zm-.171-111.573c-8.531 0-16.974 2.13-24.677 6.321-12.148 6.609-20.996 17.556-24.913 30.819-3.917 13.265-2.433 27.261 4.177 39.409 13.645 25.079 45.15 34.38 70.229 20.736 25.079-13.646 34.381-45.15 20.735-70.229-6.61-12.149-17.556-20.997-30.82-24.913a51.965 51.965 0 0 0-14.733-2.144z" fill="#3375e0"/><path d="M579.189 208.596a4.002 4.002 0 0 1-1.245-7.803l16.967-5.558a4 4 0 0 1 2.49 7.604l-16.967 5.558a4.01 4.01 0 0 1-1.246.199zm-217.148 54.111a4 4 0 0 1-.673-7.943L472.6 235.66a4 4 0 1 1 1.355 7.885l-111.232 19.104a4.063 4.063 0 0 1-.682.059z" fill="#3375e0"/><path d="M894.882 977.574a147.21 147.21 0 0 1-53.528-10.044c-86.549-33.714-125.066-137.689-162.315-238.241-12.139-32.77-23.605-63.721-35.514-88.78-11.98-25.212-19.768-34.236-22.217-36.694-38.645-18.108-56.435-63.662-39.768-103.375 17.098-40.74 63.985-59.906 104.726-42.809 74.317 31.189 107.586 120.998 142.809 216.078 13.625 36.78 27.714 74.813 42.656 104.147 12.418 24.379 21.303 34.633 25.581 38.626.875-.368 1.921-.85 3.145-1.476 39.329-20.13 87.533-4.568 107.665 34.761 20.132 39.33 4.569 87.533-34.761 107.665-29.147 14.92-55.654 20.143-78.478 20.143z" fill="#fff"/><path d="M894.882 981.574c-18.909 0-37.406-3.471-54.98-10.316-88.224-34.366-127.058-139.198-164.614-240.578-12.107-32.684-23.542-63.553-35.376-88.454-11.095-23.349-18.415-32.373-20.976-35.108-40.443-19.378-58.486-66.761-41.084-108.227 17.924-42.709 67.253-62.87 109.962-44.949 75.917 31.861 109.479 122.459 145.011 218.376 13.585 36.672 27.632 74.591 42.47 103.723 10.533 20.68 18.353 30.847 22.87 35.642.155-.077.311-.156.468-.236 41.228-21.105 91.944-4.729 113.048 36.499 21.104 41.23 4.731 91.943-36.499 113.048-26.681 13.657-53.698 20.582-80.301 20.582zM655.408 455.397c-29.71 0-57.981 17.524-70.18 46.59-15.832 37.724.762 80.861 37.777 98.206.422.198.807.469 1.137.799 2.894 2.904 10.927 12.402 22.996 37.801 11.986 25.223 23.481 56.254 35.652 89.107 36.942 99.725 75.142 202.843 160.016 235.903 16.644 6.484 34.165 9.771 52.076 9.771 25.323 0 51.114-6.629 76.655-19.703 37.304-19.095 52.118-64.979 33.023-102.282-19.095-37.302-64.977-52.115-102.282-33.022a51.013 51.013 0 0 1-3.416 1.602 3.999 3.999 0 0 1-4.281-.763c-4.397-4.105-13.677-14.727-26.416-39.734-15.049-29.547-29.179-67.688-42.843-104.573-34.913-94.245-67.889-183.262-140.605-213.779a75.591 75.591 0 0 0-29.31-5.922z" fill="#3375e0"/><path d="M901.649 1034.426c-147.544-.041-191.266-154.724-239.566-274.242-13.694-31.574-28.619-68.773-44.589-91.417-53.771-28.945-107.092-87.238-82.974-144.709 25.647-61.11 95.979-89.859 157.087-64.214 43.487 18.25 79.739 52.961 110.826 106.115 19.521 33.379 35.571 71.036 51.093 107.453 16.471 37.832 32.882 79.397 54.445 108.341 124.619-26.723 197.435 106.053 141.3 186.321-23.745 33.953-77.485 66.01-147.623 66.352z" fill="#a8cffb"/><path d="M901.669 1038.426h-.021c-135.501-.038-185.072-127.527-228.808-240.009-4.95-12.731-9.626-24.757-14.448-36.689a3427.023 3427.023 0 0 1-5.786-13.449c-12.071-28.17-24.547-57.285-37.848-76.443-57.651-31.348-108.305-91.235-83.927-149.325 26.46-63.048 99.279-92.811 162.324-66.354 44.315 18.598 81.19 53.854 112.73 107.784 19.648 33.596 35.748 71.368 51.318 107.898 2.234 5.13 4.476 10.352 6.73 15.602 13.817 32.178 28.092 65.42 45.744 89.876 29.564-5.879 57.387-3.376 82.741 7.451 23.363 9.977 43.313 26.705 57.695 48.377 13.746 20.715 21.456 44.362 22.296 68.386.881 25.195-5.986 48.999-19.86 68.836-21.793 31.164-74.386 67.688-150.882 68.061zM645.327 454.494c-45.346 0-88.499 26.747-107.117 71.111-13.134 31.297-.772 60.384 11.911 79.274 15.419 22.965 40.667 44.967 69.271 60.364a4.013 4.013 0 0 1 1.373 1.217c13.985 19.83 26.802 49.74 39.197 78.666 1.955 4.562 3.886 9.067 5.793 13.465l.039.093c4.848 11.997 9.539 24.061 14.505 36.833 21.969 56.5 44.686 114.924 78.574 159.819 38.124 50.508 84.832 75.069 142.776 75.089 73.431-.362 123.651-35.049 144.349-64.645 25.727-36.787 24.727-87.114-2.546-128.214-29.382-44.278-79.715-63.682-134.638-51.903a4.003 4.003 0 0 1-4.046-1.521c-18.911-25.385-33.791-60.036-48.181-93.546-2.249-5.237-4.486-10.447-6.724-15.588-15.487-36.335-31.486-73.872-50.879-107.03-30.633-52.38-66.262-86.544-108.92-104.446-14.615-6.134-29.795-9.038-44.734-9.038z" fill="#3375e0"/><path d="M859.558 723.349c-3.042-34.289 210.626-75.974 226.605-14.163s-221.895 67.261-226.605 14.163z" fill="#3375e0"/><path d="M965.901 763.668c-32.326 0-62.695-4.453-82.576-12.4-17.409-6.959-26.746-16.233-27.751-27.565-1.995-22.489 57.268-38.799 92.599-44.89 59.295-10.223 132.03-8.665 141.863 29.372 2.704 10.46-.776 20.31-10.064 28.484-16.005 14.088-49.638 23.683-92.274 26.326-7.298.452-14.597.673-21.796.673zm-102.359-40.673c.893 10.067 12.866 16.893 22.752 20.845 23.278 9.305 61.94 13.588 100.908 11.17 40.297-2.497 73.001-11.599 87.484-24.346 7.07-6.223 9.557-12.921 7.604-20.478-7.886-30.505-74.345-33.561-132.759-23.49-52.559 9.062-86.896 26.085-85.989 36.299z" fill="#3375e0"/><path d="M875.276 820.039c8.646-3.84 9.714-22.01 5.712-47.008-13.278-92.745-108.203-250.165-203.65-259.566-104.433-15.691-86.418-168.252 19.077-158.861 83.16 9.984 143.994 66.031 217.018 148.674 82.755 95.539 157.273 236.54 119.386 360.219" fill="#fff"/><path d="M1032.82 867.497a4 4 0 0 1-3.826-5.173c46.096-150.476-79.112-310.856-118.585-356.427-76.079-86.102-135.566-137.826-214.41-147.314-51.624-4.553-79.659 31.257-83.87 66.485-4.213 35.25 14.556 76.689 65.704 84.426 44.211 4.403 92.292 39.974 135.395 100.171 36.758 51.337 64.91 115.239 71.719 162.799 4.79 29.919 2.16 46.697-8.048 51.23a4 4 0 1 1-3.247-7.31c4.615-2.05 7.927-14.349 3.386-42.721-6.651-46.45-34.247-108.969-70.314-159.34-41.776-58.345-87.865-92.749-129.778-96.878a6.946 6.946 0 0 1-.202-.024c-56.499-8.489-77.217-54.315-72.558-93.302 4.655-38.954 35.615-78.564 92.583-73.499l.123.013c40.162 4.822 76.452 20.023 114.206 47.841 38.048 28.034 74.598 67.372 105.333 102.156 32.664 37.71 77.485 97.917 105.667 170.762 27.313 70.599 32.207 135.626 14.547 193.276a4.002 4.002 0 0 1-3.823 2.829z" fill="#3375e0"/><path d="M723.982 660.941c7.474 93.883-16.25 225.277-27.037 328.502-43.786 56.146-338.9 89.436-467.125 18.952 0 0-104.343-482.666-56.996-521.34 69.195-56.52 167.799-63.903 201.632-66.446 14.765 38.148 67.513 93.796 122.343 87.65 58.01-6.502 71.136-50.322 71.136-78.054 23.686 2.136 122.751 22.027 145.663 41.25" fill="#a8cffb"/><path d="M438.757 1052.346c-30.87 0-60.813-1.781-88.517-5.313-50.483-6.437-91.646-18.257-122.347-35.133a3.998 3.998 0 0 1-1.983-2.66c-.261-1.207-26.339-122.207-46.292-246.377-11.73-72.995-19.083-132.812-21.855-177.787-4.78-77.558 4.862-94.854 12.531-101.118 70.136-57.289 170.75-64.849 203.813-67.333 1.758-.111 3.444.899 4.081 2.541 15.236 39.366 67.567 90.785 118.167 85.118 62.708-7.028 67.582-58.478 67.582-74.078 0-1.123.472-2.195 1.302-2.953a3.94 3.94 0 0 1 3.058-1.03c22.64 2.041 123.83 21.997 147.874 42.17a4 4 0 1 1-5.141 6.129c-20.364-17.085-108.439-36.058-139.2-39.868-.54 11.232-3.375 28.846-14.416 44.815-12.941 18.718-33.184 29.742-60.167 32.766-32.6 3.662-61.05-13.259-79.175-28.094-20.131-16.476-37.604-38.958-46.224-59.321-35.136 2.679-130.233 11.212-196.492 65.334-10.385 8.483-22.615 55.027 12.162 271.44 18.596 115.722 42.519 228.679 45.829 244.164 56.517 30.323 154.018 44.022 261.428 36.657 95.823-6.567 176.916-28.93 198.316-54.563 2.804-26.653 6.398-54.709 10.2-84.385 10.911-85.179 22.194-173.258 16.705-242.209a4 4 0 0 1 7.975-.635c5.555 69.778-5.781 158.276-16.744 243.86-3.852 30.065-7.489 58.464-10.301 85.376a4.008 4.008 0 0 1-.824 2.044c-21.909 28.093-104.203 51.6-204.778 58.492a828.583 828.583 0 0 1-56.564 1.95zm258.189-62.903h.01z" fill="#3375e0"/><path d="M504.189 458.278c34.542-14.766 43.762-42.185 50.891-52.295 3.949-5.599 23.019 19.087 24.109 25.55 1.091 6.463-16.66 76.726-16.66 76.726l-58.341-49.982z" fill="#fff"/><path d="M562.53 512.259a4.003 4.003 0 0 1-2.603-.962l-58.341-49.981a4 4 0 0 1 1.03-6.716c26.713-11.419 37.426-30.498 44.515-43.123 1.719-3.062 3.204-5.706 4.68-7.8 1.448-2.053 3.877-2.919 6.498-2.327 8.701 1.979 23.733 23.045 24.825 29.518 1.142 6.768-12.514 61.697-16.727 78.371a4 4 0 0 1-3.877 3.021zm-51.023-52.98 48.715 41.735c6.925-27.807 15.396-64.325 15.011-68.9-.691-4.084-12.652-19.766-17.723-22.568-1.022 1.606-2.146 3.607-3.404 5.848-6.667 11.874-17.521 31.202-42.6 43.886z" fill="#3375e0"/><path d="M402.897 392.88c-11.956 0-51.98 23.212-51.896 30.321.117 9.87 80.984 99.793 80.984 99.793s65.868-48.445 72.204-64.717c-41.949-9.655-101.293-65.398-101.293-65.398z" fill="#fff"/><path d="M431.987 526.994c-1.1 0-2.19-.452-2.976-1.325-.203-.226-20.483-22.791-40.517-46.273-41.402-48.53-41.461-53.485-41.492-56.146-.027-2.283 1.249-4.65 4.016-7.45 9.248-9.358 39.992-26.919 51.879-26.919a4 4 0 0 1 2.738 1.084c.586.551 59.047 55.116 99.451 64.415a4.001 4.001 0 0 1 2.831 5.349c-6.568 16.867-66.724 61.459-73.562 66.488a3.992 3.992 0 0 1-2.368.777zm-76.89-103.68c2.972 8.814 45.922 59.134 77.435 94.302 23.373-17.376 56.031-43.791 65.585-56.822-38.861-11.745-87.867-55.703-96.658-63.791-5.096.769-15.195 5.086-25.615 11.024-12.409 7.07-19.463 13.079-20.748 15.287z" fill="#3375e0"/><path d="M753.142 369.682c-33.738-22.04-51.335-45.638-60.885-63.105-11.75-21.49-43.084 13.945-30.279 46.623 9.061 23.123 21.199 39.045 26.194 50.495-8.492 25.121 32.754 54.242 60.676 41.027" fill="#fff"/><path d="M733.629 452.025c-13.845 0-27.595-6.478-36.632-14.522-11.249-10.014-16.056-22.425-13.088-33.522-1.821-3.872-4.463-8.373-7.473-13.501-5.555-9.464-12.469-21.241-18.182-35.82-4.325-11.037-4.393-23.487-.19-35.058 3.747-10.314 10.351-18.512 17.666-21.928 7.968-3.722 15.647-1.046 20.037 6.983 12.848 23.5 32.888 44.25 59.563 61.676a3.998 3.998 0 0 1 1.161 5.536 3.996 3.996 0 0 1-5.536 1.161c-27.791-18.154-48.72-39.867-62.208-64.535-2.398-4.387-5.461-5.521-9.632-3.573-10.811 5.049-21.205 26.933-13.413 46.818 5.483 13.991 12.22 25.468 17.633 34.689 3.487 5.94 6.499 11.071 8.503 15.666.397.912.441 1.938.123 2.881-2.82 8.343 1.051 18.269 10.355 26.551 10.877 9.684 29.542 16.81 44.821 9.58a4 4 0 1 1 3.422 7.23c-5.439 2.575-11.194 3.688-16.93 3.688z" fill="#3375e0"/><path d="M859.404 700.287c-35.999-85.376-108.879-179.613-182.066-186.821-104.433-15.691-86.418-168.252 19.077-158.861 83.16 9.984 143.994 66.031 217.018 148.674 47.593 54.946 92.462 124.928 114.792 198.004" fill="#fff"/><path d="M1028.223 705.283a4 4 0 0 1-3.824-2.832c-19.775-64.717-60.258-134.521-113.99-196.554-76.079-86.102-135.568-137.826-214.411-147.314-51.625-4.563-79.659 31.258-83.869 66.485-4.213 35.25 14.557 76.689 65.704 84.426 75.637 7.526 149.042 103.353 185.256 189.239a4 4 0 1 1-7.371 3.107c-18.729-44.418-46.563-88.736-76.365-121.59-34.354-37.872-69.765-59.59-102.408-62.806a6.946 6.946 0 0 1-.202-.024c-56.499-8.489-77.217-54.315-72.558-93.302 4.655-38.954 35.615-78.564 92.583-73.499l.122.013c40.162 4.822 76.452 20.023 114.206 47.841 38.048 28.034 74.598 67.372 105.333 102.156 54.473 62.888 95.525 133.722 115.62 199.483a3.999 3.999 0 0 1-3.826 5.17z" fill="#3375e0"/><path d="M693.152 354.285c-56.947-3.76-118.692 23.844-141.617 48.716-22.153 24.033 8.258 46.168 39.402 34.354s43.905-16.706 59.624-19.791" fill="#fff"/><path d="M573.441 444.612c-12.618 0-23.986-4.757-29.83-13.403-6.229-9.218-4.367-20.776 4.982-30.919 24.991-27.112 89.15-53.664 144.822-49.996a4.001 4.001 0 0 1-.527 7.983c-58.237-3.833-117.804 25.078-138.413 47.436-6.861 7.443-8.365 14.908-4.236 21.018 5.761 8.523 22.028 13.433 39.278 6.886l1.594-.604c30.34-11.51 42.898-16.274 58.679-19.371a3.996 3.996 0 0 1 4.696 3.154 3.999 3.999 0 0 1-3.155 4.695c-15.117 2.967-27.489 7.661-57.382 19.002l-1.593.604c-6.27 2.378-12.742 3.517-18.915 3.517z" fill="#3375e0"/><path d="M666.39 403.695c-28.483 2.297-71.289 22.774-74.465 49.941s22.9 63.001 44.242 68.169c37.712 9.13 37.315-36.415 14.291-46.736" fill="#fff"/><path d="M645.442 526.993c-3.187 0-6.606-.428-10.216-1.302-11.311-2.738-23.905-13.012-33.688-27.481-10.214-15.106-15.166-31.522-13.586-45.039 3.449-29.499 47.822-51.02 78.117-53.463 2.189-.172 4.131 1.464 4.308 3.666a4 4 0 0 1-3.666 4.309c-14.151 1.141-31.388 6.922-44.985 15.086-15.373 9.23-24.545 20.358-25.828 31.332-2.955 25.278 21.659 59.082 41.211 63.815 12.511 3.029 21.098-.264 24.178-9.27 3.407-9.964-1.2-24.88-12.464-29.929a4 4 0 0 1 3.272-7.301c15.522 6.959 21.292 26.569 16.762 39.817-3.497 10.226-11.954 15.759-23.415 15.759z" fill="#3375e0"/><path d="M668.385 449.856c-23.213 0-63.045 14.924-66.083 42.107-3.636 32.53 24.252 60.515 55.699 55.354 28.496-4.676 31.959-31.651 19.34-33.853" fill="#fff"/><path d="M650.494 551.931c-12.964 0-25.522-5.043-35.375-14.402-12.417-11.795-18.694-28.995-16.792-46.011 3.398-30.403 46.746-45.662 70.059-45.662a4 4 0 0 1 0 8c-23.567 0-59.478 15.018-62.108 38.551-1.649 14.759 3.582 29.091 14.352 39.321 10.078 9.574 23.463 13.815 36.725 11.642 16.774-2.753 22.913-13.568 22.946-20.166.008-1.551-.332-5.221-3.646-5.799a4 4 0 0 1-3.253-4.628 3.996 3.996 0 0 1 4.628-3.253c6.276 1.095 10.308 6.48 10.271 13.72-.058 11.516-10.262 24.838-29.651 28.021a50.528 50.528 0 0 1-8.155.667z" fill="#3375e0"/><path d="M677.346 517.465a4.04 4.04 0 0 1-.587-.044c-.853-.125-21.023-3.149-32.203-9.856a4 4 0 0 1 4.116-6.859c9.803 5.882 29.058 8.773 29.251 8.802a4 4 0 0 1-.578 7.958zm-427.171 583.302c34.464 11.605 91.754-179.563 61.148-207.655-29.771-27.326-114.699 189.623-61.148 207.655z" fill="#3375e0"/><path d="M253.338 1105.295c-1.5 0-2.979-.245-4.44-.737-11.999-4.04-18.683-16.153-19.866-36.002-1.566-26.274 6.886-65.912 22.609-106.03 12.045-30.733 30.751-66.349 47.126-74.135 5.662-2.693 11.081-2.061 15.259 1.774 15.777 14.48 9.456 59.756 4.284 85.454-7.817 38.844-22.253 79.823-36.775 104.401-9.927 16.801-19.391 25.274-28.198 25.274zm-1.887-8.319c5.71 1.926 14.166-5.741 23.197-21.024 30-50.772 54.211-161.314 33.97-179.892-1.241-1.14-2.973-2.081-6.415-.444-11.575 5.504-28.901 33.566-43.113 69.829-15.093 38.509-23.551 77.837-22.072 102.636.97 16.275 5.826 25.998 14.433 28.896z" fill="#3375e0"/><path d="M248.623 654.577c-36.02 70.531-43.357 185.108-6.11 233.407 78.806 69.733 308.913-17.481 408.118 21.057 100.009 31.914 55.209 181.842-46.141 153.195-64.385-11.376-182.963 14.157-260.297 13.284-84.651-.955-173.587-20.461-226.124-86.966-103.23-136.37-76.376-378.143 50.615-489.659" fill="#fff"/><path d="M348.068 1079.541c-1.32 0-2.624-.007-3.919-.021-106.666-1.205-183.785-30.977-229.218-88.487-49.687-65.636-72.217-159.304-61.864-257.05 10.307-97.313 51.486-184.095 112.979-238.094a4 4 0 1 1 5.278 6.012C45.021 612.812 20.223 852.669 121.259 986.139c43.811 55.457 118.849 84.205 222.98 85.381 31.8.387 71.582-3.881 110.059-7.983 55.364-5.902 112.612-12.004 150.889-5.239.132.022.263.053.392.089 49.562 14.013 83.283-16.685 93.644-51.129 10.378-34.502-.782-78.762-49.806-94.406a3.033 3.033 0 0 1-.232-.082c-42.988-16.7-110.637-9.334-182.258-1.536-39.846 4.339-80.308 8.743-116.915 8.743-45.508.002-85.065-6.802-110.147-28.997a4.041 4.041 0 0 1-.517-.553c-18.139-23.521-27.106-62.928-25.25-110.963 1.755-45.428 13.042-91.61 30.964-126.706a4 4 0 0 1 7.125 3.639c-33.685 65.959-43.905 180.116-6.736 228.844 42.727 37.411 133.152 27.564 220.609 18.04 72.556-7.9 141.095-15.362 185.906 1.988 24.249 7.769 42.075 22.832 51.552 43.567 8.413 18.407 9.608 39.973 3.366 60.726-6.238 20.739-19.121 38.043-36.275 48.724-19.313 12.024-42.482 14.738-67.009 7.855-37.165-6.507-93.741-.48-148.454 5.352-37.153 3.96-75.525 8.05-107.078 8.05z" fill="#3375e0"/><path d="M312.361 680.756c-43.3 43.302-82.427 111.49-74.833 157.122 24.302 5.613 23.878 30.273 17.369 40.294-47.658 47.619-80.813 132.639-54.026 206.097-13.79 0-42.553 4.599-75.932-8.556-67.758-26.705-100.003-80.222-116.395-179.885C-2.921 826.12 7.476 746.41 37.822 671.382c31.13-76.967 72.936-134.213 135.002-184.327" fill="#a8cffb"/><path d="M177.168 1089.038c-14.629 0-33.435-1.619-53.695-9.604C56.041 1052.858 21.6 999.852 4.598 896.478c-11.583-70.424-1.101-150.896 29.517-226.596 31.555-78.019 73.56-135.364 136.198-185.939a3.997 3.997 0 0 1 5.625.6 4 4 0 0 1-.6 5.625C113.817 539.842 72.549 596.193 41.531 672.883 11.457 747.239 1.144 826.186 12.491 895.18c16.48 100.192 49.483 151.418 113.916 176.812 26.679 10.517 50.109 9.358 65.614 8.591 1.151-.057 2.248-.111 3.295-.158-10.955-33.687-10.692-71.599.82-110.04 10.744-35.877 30.486-69.497 55.615-94.721 2.872-4.726 4.264-13.537 1.246-21.01-2.689-6.657-8.196-10.99-16.368-12.877a4 4 0 0 1-3.046-3.241c-7.929-47.646 32.206-116.86 75.95-160.606a4 4 0 1 1 5.657 5.656c-40.49 40.491-79.627 106.599-74.083 151.109 11.646 3.53 16.922 11.059 19.307 16.963 4.34 10.745 1.921 22.407-2.163 28.694a3.972 3.972 0 0 1-.527.651c-46.154 46.115-79.212 130.273-53.095 201.896a4 4 0 0 1-3.757 5.37c-2.337 0-5.173.141-8.457.303-4.314.213-9.453.467-15.247.467z" fill="#3375e0"/><path d="m266.898 861.31 44.425 31.802c-33.881 3.382-84.603 166.876-61.148 207.655l-72.595-10.596c-32.234-87.287 29.036-228.861 89.318-228.861z" fill="#fff"/><path d="M250.176 1104.767c-.192 0-.385-.014-.579-.042l-72.595-10.596a4.002 4.002 0 0 1-3.175-2.572c-13.087-35.441-9.787-74.168-4.713-100.415 6.548-33.877 20.228-67.549 37.53-92.383 18.623-26.729 40.021-41.449 60.253-41.449.835 0 1.649.262 2.328.747l44.425 31.803a4.002 4.002 0 0 1 1.537 4.285 4.002 4.002 0 0 1-3.467 2.948c-3.407.34-12.857 4.103-27.002 31.628-12.775 24.862-24.766 60.854-31.292 93.93-7.072 35.843-6.994 63.589.215 76.122a3.999 3.999 0 0 1-3.467 5.994zm-69.64-18.207 63.114 9.212c-12.337-37.407 10.294-124.663 33.954-170.707 8.766-17.06 17.249-28.123 25.316-33.049l-37.274-26.684c-17.191.625-35.76 14.063-52.437 38-31.828 45.683-52.448 126.188-32.673 183.228z" fill="#3375e0"/><path d="M631.304 903.362c49.06 8.536 84.301 29.049 94.977 54.189 8.718 20.53-12.737 54.412-29.962 45.459-17.224-8.952-26.204-14.12-36.505-29.273" fill="#fff"/><path d="M702.256 1008.484c-2.678 0-5.3-.635-7.781-1.925-17.462-9.076-27.082-14.559-37.969-30.573a4 4 0 0 1 6.616-4.498c9.823 14.45 18.304 19.273 35.042 27.974 5.585 2.902 11.229-1.114 14.098-3.767 8.785-8.128 15.192-25.15 10.338-36.581-10.281-24.21-44.667-43.579-91.981-51.813a4 4 0 1 1 1.371-7.881c50 8.7 86.626 29.847 97.973 56.566 6.446 15.18-1.35 35.479-12.269 45.58-4.937 4.567-10.289 6.917-15.438 6.917z" fill="#3375e0"/><path d="M654.706 961.113c24.425 7.268 57.751 27.381 57.33 52.791-.375 22.588-24.2 35.746-36.827 34.31-13.392-1.523-42.536-28.391-42.536-28.391" fill="#fff"/><path d="M677.165 1052.32a21.24 21.24 0 0 1-2.408-.132c-14.278-1.624-41.714-26.585-44.795-29.425a4 4 0 1 1 5.423-5.882c7.842 7.228 30.365 26.231 40.277 27.358 5.046.58 14.001-1.895 21.722-8.674 4.765-4.184 10.481-11.349 10.653-21.728.393-23.692-33.203-42.563-54.471-48.892a4 4 0 0 1 2.282-7.668c24.451 7.276 60.657 28.379 60.188 56.692-.172 10.382-4.922 20.186-13.374 27.606-7.54 6.619-17.465 10.743-25.496 10.743z" fill="#3375e0"/><path d="M628.038 1004.133c21.418 7.653 56.149 24.739 49.93 54.332-6.298 29.966-36.416 35.097-58.526 26.318-16.795-6.669-15.826-18.274-7.231-20.461" fill="#fff"/><path d="M639.382 1092.616c-7.13 0-14.492-1.366-21.417-4.115-10.34-4.105-16.241-10.776-15.785-17.843.315-4.887 3.865-8.896 9.043-10.213a4 4 0 0 1 1.973 7.754c-.869.221-2.902.952-3.033 2.975-.176 2.729 3.081 6.845 10.753 9.892 12.65 5.022 26.854 4.734 37.072-.752 8.451-4.539 13.856-12.167 16.063-22.671 5.583-26.563-27.277-42.567-47.36-49.743a3.998 3.998 0 0 1-2.421-5.112 3.998 3.998 0 0 1 5.112-2.421c38.917 13.904 57.561 34.83 52.498 58.921-2.677 12.739-9.63 22.447-20.108 28.074-6.506 3.494-14.299 5.254-22.392 5.255z" fill="#3375e0"/><path d="M604.491 1062.235c14.811 2.998 19.092 5.633 28.182 8.549" fill="#fff"/><path d="M632.674 1074.784a4 4 0 0 1-1.222-.192c-2.792-.895-5.143-1.765-7.417-2.605-5.268-1.947-10.243-3.788-20.338-5.83a4 4 0 0 1 1.587-7.842c10.702 2.166 16.204 4.201 21.526 6.169 2.192.811 4.459 1.649 7.084 2.491a4 4 0 0 1-1.22 7.809zM194.235 853.938a3.99 3.99 0 0 1-3.233-1.641 3.998 3.998 0 0 1 .866-5.585c.94-.688 23.287-16.802 46.349-12.774a4 4 0 0 1-1.377 7.881c-19.664-3.437-40.047 11.203-40.251 11.352a3.985 3.985 0 0 1-2.354.768z" fill="#3375e0"/><path d="M844.892 845.565c-9.584-20.002 4.361-41.877 19.151-51.986 1.977-3.509 3.225-10.759 1.321-22.107 43.123 51.879 141.241 47.987 214.476 12.278 13.178 28.004 22.214 95.63-4.844 155.721-23.56 52.321-78.016 94.955-173.346 94.955" fill="#a8cffb"/><path d="M901.649 1038.426a4 4 0 0 1 0-8c111.372 0 154.126-58.016 169.699-92.599 24.778-55.024 18.946-118.262 6.489-148.689-36.636 17.128-78.906 26.328-116.634 25.316-38.522-1.033-69.664-12.017-90.894-31.916-.066 5.393-1.001 9.846-2.781 13.004a4 4 0 0 1-1.228 1.34c-11.737 8.022-26.949 27.864-17.801 46.955a4 4 0 0 1-7.215 3.457c-9.915-20.691 2.607-44.282 19.634-56.412 1.326-3.075 2.074-9.369.5-18.748a4 4 0 0 1 7.021-3.219c24.627 29.628 64.155 36.77 92.977 37.542 37.787 1.02 80.308-8.573 116.67-26.304a3.999 3.999 0 0 1 5.372 1.892c14.177 30.126 22.055 99.394-4.816 159.066-12.881 28.604-34.091 52.423-61.339 68.88-31.237 18.867-70.149 28.434-115.655 28.434z" fill="#3375e0"/><path d="M1086.163 709.186c.171 1.17 12.405 67.114 12.405 67.114-11.9 55.522-193.492 56.342-238.2 11.03 0 0-1.426-64.64-.81-63.981 45.862 49.083 211.356 42.246 226.605-14.163z" fill="#fff"/><path d="M982.379 823.757c-12.158 0-24.515-.659-36.657-2.003-40.671-4.502-72.819-16.025-88.201-31.614a4.003 4.003 0 0 1-1.152-2.722c-.003-.159-.355-16.129-.63-31.922-.162-9.282-.267-16.691-.311-22.021a449.54 449.54 0 0 1-.015-7.354c.032-3.273.054-5.436 2.624-6.482a4.022 4.022 0 0 1 4.444.979c29.482 31.553 110.429 38.521 164.634 25.041 31.141-7.744 50.739-21.067 55.186-37.518a3.984 3.984 0 0 1 4.099-2.949 4 4 0 0 1 3.716 3.387c.265 1.617 8.213 44.51 12.384 66.991a3.993 3.993 0 0 1-.022 1.567c-3.526 16.451-20.208 29.469-48.245 37.646-20.202 5.892-45.559 8.973-71.854 8.974zm-118.047-38.145c14.56 13.757 44.387 23.997 82.271 28.19 37.412 4.14 76.81 1.636 105.391-6.699 17.202-5.018 38.396-14.431 42.49-30.893a68950.07 68950.07 0 0 1-10.026-54.142c-9.493 13.778-28.61 24.688-55.411 31.354-28.838 7.172-63.76 8.763-95.812 4.362-29.944-4.109-54.284-13.039-69.816-25.462.096 12.562.545 36.383.914 53.289z" fill="#3375e0"/></svg></g><g transform="translate(2328.0 418.0) rotate(0.0 133.0 197.0) scale(2.2052361924027126 2.207258181981154)"><svg width="120.622" height="178.502" viewBox="0 0 120.622 178.502"><path d="M4 51.157C5.669 10.759 57.335-6.131 90.431 10.136c21.127 9.145 32.806 35.238 22.226 55.651-7.573 15.713-26.519 24.348-37.983 41.02-4.529 9.041-2.301 24.256-16.994 23.802-22.376-1.011-13.734-33.623-3.151-43.721 7.421-8.835 23.165-19.034 28.867-29.092 7.763-14.581-5.708-30.907-21.777-29.936-8.254 0-14.332 2.081-18.231 6.245-3.901 4.164-7.203 10.297-9.904 18.4-4.098 18.554-28.391 15.474-29.486-1.35zm54.92 123.344c-22.736.09-22.693-33.415 0-33.65 22.305.269 22.205 33.595 0 33.65z" fill="#3375E0"/><path d="M58.828 178.501c-13.655 0-20.871-10.313-20.943-20.529-.074-10.387 7.113-20.977 20.994-21.12 13.708.165 20.782 10.683 20.732 20.987-.049 10.242-7.169 20.629-20.682 20.662h-.102zm.044-33.649c-9.008.094-13.033 6.628-12.987 13.063.044 6.273 4.066 12.587 12.945 12.587.027 0 .053.006.08 0 8.732-.021 12.671-6.395 12.701-12.701.031-6.368-3.896-12.842-12.739-12.948zm-.532-10.232c-.257 0-.517-.005-.782-.013-8.038-.362-13.846-4.331-16.41-11.177-4.451-11.881 2.063-31.103 10.458-39.279 3.204-3.773 7.588-7.585 12.227-11.617 6.39-5.556 12.997-11.299 16.058-16.663 2.584-4.892 2.294-10.453-.798-15.268-3.678-5.726-10.437-9.161-17.232-8.749-.082.006-.153.023-.247.007-7.062 0-12.211 1.675-15.306 4.979-3.457 3.69-6.473 9.322-8.965 16.743-2.654 11.562-11.903 16.121-19.939 15.511C7.791 68.361.638 61.091.008 51.416a4.018 4.018 0 0 1-.005-.425C.711 33.869 9.819 19.256 25.651 9.845 45.453-1.927 72.147-3.266 92.11 6.504c11.986 5.218 21.419 15.403 25.89 27.958 4.037 11.338 3.41 23.096-1.764 33.114-4.439 9.176-12.063 15.802-20.136 22.816-6.382 5.546-12.98 11.279-17.964 18.444-1.018 2.129-1.663 4.805-2.344 7.632-1.853 7.683-4.378 18.15-17.451 18.151zm4.598-110.799c9.097 0 17.951 4.775 22.886 12.459 4.712 7.336 5.115 15.863 1.104 23.396l-.051.093c-3.725 6.57-10.878 12.788-17.795 18.802-4.462 3.879-8.677 7.543-11.488 10.891-.095.112-.195.22-.302.32-6.5 6.202-11.862 22.271-8.652 30.843 1.448 3.867 4.379 5.77 9.222 5.988 6.56.207 8.009-3.135 10.151-12.02.782-3.241 1.59-6.594 3.085-9.577.082-.165.176-.324.28-.476 5.58-8.114 12.643-14.252 19.473-20.188 7.448-6.472 14.482-12.585 18.202-20.303l.052-.104c4.167-8.038 4.648-17.557 1.357-26.801-3.685-10.35-11.768-19.074-21.621-23.339a3.48 3.48 0 0 1-.175-.081C71.02 5.053 47.339 6.256 29.737 16.72 16.377 24.661 8.666 36.864 8.005 51.098c.514 6.43 5.375 9.664 10.007 10.018 4.494.354 9.908-1.965 11.567-9.473.03-.137.067-.271.111-.402 2.872-8.616 6.499-15.302 10.779-19.87 4.648-4.964 11.725-7.49 21.033-7.511.479-.026.958-.04 1.436-.04z" fill="#3375e0"/></svg></g></svg>